<svg width="393" height="148" viewBox="0 0 393 148" fill="none" xmlns="http://www.w3.org/2000/svg">
<path d="M386.487 1.2669L383.434 0.193359M386.487 1.2669H377.44M386.487 1.2669L389.641 2.37588M386.487 1.2669H392.894M374.533 0.193359H383.434L384.545 0.193778L385.644 0.196102L386.721 0.202638L387.764 0.21551L388.761 0.236398L389.703 0.26784L390.577 0.311516L391.389 0.367213L392.086 0.444231L392.72 0.533482L392.894 0.564744V1.2669M374.533 0.193359H365.631M374.533 0.193359L377.44 1.2669M365.631 0.193359H356.729M365.631 0.193359L368.393 1.2669M356.729 0.193359H347.828M356.729 0.193359L359.346 1.2669M347.828 0.193359H338.926M347.828 0.193359L350.299 1.2669M338.926 0.193359H330.024M338.926 0.193359L341.252 1.2669M330.024 0.193359H321.123M330.024 0.193359L332.205 1.2669M321.123 0.193359H312.221M321.123 0.193359L323.158 1.2669M312.221 0.193359H303.319M312.221 0.193359L314.111 1.2669M303.319 0.193359H294.418M303.319 0.193359L305.064 1.2669M294.418 0.193359H285.516M294.418 0.193359L296.017 1.2669M285.516 0.193359H276.615M285.516 0.193359L286.97 1.2669M276.615 0.193359H267.713M276.615 0.193359L276.938 0.458577L277.428 0.860102L277.923 1.2669M267.713 0.193359H258.811M267.713 0.193359L268 0.458577L268.876 1.2669M258.811 0.193359H249.91M258.811 0.193359L259.829 1.2669M249.91 0.193359H241.008M249.91 0.193359L250.233 0.591923L250.561 0.995135L250.671 1.13081L250.782 1.2669M241.008 0.193359H232.106M241.008 0.193359L241.278 0.591923L241.369 0.725694L241.46 0.860102L241.735 1.2669M232.106 0.193359H223.205M232.106 0.193359L232.688 1.2669M223.205 0.193359L223.259 0.325649L223.313 0.458577L223.586 1.13081L223.641 1.2669M223.205 0.193359H214.303M214.303 0.193359H205.402M214.303 0.193359L214.594 1.2669M205.402 0.193359H196.5M205.402 0.193359L205.456 0.591923L205.547 1.2669M196.5 0.193359H187.598M196.5 0.193359V1.2669M187.598 0.193359H178.697M187.598 0.193359L187.544 0.591923L187.453 1.2669M178.697 0.193359H169.795M178.697 0.193359L178.406 1.2669M169.795 0.193359L169.741 0.325649L169.687 0.458577L169.414 1.13081L169.359 1.2669M169.795 0.193359H160.894M160.894 0.193359H151.992M160.894 0.193359L160.386 1.13081L160.312 1.2669M151.992 0.193359H143.09M151.992 0.193359L151.722 0.591923L151.631 0.725694L151.449 0.995135L151.357 1.13081L151.265 1.2669M143.09 0.193359H134.189M143.09 0.193359L142.767 0.591923L142.439 0.995135L142.329 1.13081L142.218 1.2669M134.189 0.193359H125.287M134.189 0.193359L133.171 1.2669M125.287 0.193359H116.385M125.287 0.193359L125 0.458577L124.124 1.2669M116.385 0.193359H107.484M116.385 0.193359L115.077 1.2669M107.484 0.193359H98.5821M107.484 0.193359L106.03 1.2669M98.5821 0.193359H89.6804M98.5821 0.193359L96.9829 1.2669M89.6804 0.193359H80.7788M89.6804 0.193359L87.9359 1.2669M80.7788 0.193359H71.8772M80.7788 0.193359L78.8889 1.2669M71.8772 0.193359H62.9757M71.8772 0.193359L69.8419 1.2669M62.9757 0.193359H54.0739M62.9757 0.193359L60.7949 1.2669M54.0739 0.193359H45.1723M54.0739 0.193359L51.7478 1.2669M45.1723 0.193359H36.2707M45.1723 0.193359L42.7008 1.2669M36.2707 0.193359H27.369M36.2707 0.193359L33.6538 1.2669M27.369 0.193359H18.4674M27.369 0.193359L24.607 1.2669M0.105768 1.2669V0.56475L0.280067 0.533482L0.914256 0.444231L1.61084 0.367213L2.42261 0.311516L3.29717 0.26784L4.23884 0.236398L5.23636 0.21551L6.27909 0.202638L7.35558 0.196102L8.45498 0.193778L9.56583 0.193359H18.4674M18.4674 0.193359L15.5599 1.2669M9.56583 0.193359L6.51292 1.2669M24.607 1.2669H33.6538M24.607 1.2669H15.5599M24.607 1.2669L21.7529 2.37588M33.6538 1.2669L30.9501 2.37588M33.6538 1.2669H42.7008M60.7949 1.2669H69.8419M60.7949 1.2669H51.7478M60.7949 1.2669L60.2386 1.54077L58.5418 2.37588M69.8419 1.2669L67.739 2.37588M69.8419 1.2669H78.8889M96.9829 1.2669H106.03M96.9829 1.2669H87.9359M96.9829 1.2669L96.575 1.54077L96.3696 1.67834L95.3306 2.37588M106.03 1.2669L105.845 1.40341L105.659 1.54077L104.528 2.37588M106.03 1.2669H115.077M133.171 1.2669L133.041 1.40341L132.12 2.37588M133.171 1.2669H142.218M133.171 1.2669H124.124M142.218 1.2669L141.995 1.54077L141.883 1.67834L141.771 1.81675L141.317 2.37588M142.218 1.2669H151.265M169.359 1.2669H178.406M169.359 1.2669H160.312M169.359 1.2669L168.908 2.37588M178.406 1.2669L178.369 1.40341L178.332 1.54077L178.294 1.67834L178.182 2.09505L178.106 2.37588M178.406 1.2669H187.453M205.547 1.2669H214.594M205.547 1.2669H196.5M205.547 1.2669L205.697 2.37588M214.594 1.2669L214.631 1.40341L214.668 1.54077L214.706 1.67834L214.894 2.37588M214.594 1.2669H223.641M241.735 1.2669H250.782M241.735 1.2669H232.688M241.735 1.2669L241.92 1.54077L242.296 2.09505L242.391 2.23515L242.486 2.37588M250.782 1.2669L251.005 1.54077L251.117 1.67834L251.229 1.81675L251.683 2.37588M250.782 1.2669H259.829M277.923 1.2669H286.97M277.923 1.2669H268.876M277.923 1.2669L278.257 1.54077L278.425 1.67834L279.275 2.37588M286.97 1.2669L287.155 1.40341L287.341 1.54077L288.472 2.37588M286.97 1.2669H296.017M314.111 1.2669H323.158M314.111 1.2669H305.064M314.111 1.2669L314.593 1.54077L314.836 1.67834L316.064 2.37588M323.158 1.2669L325.261 2.37588M323.158 1.2669H332.205M350.299 1.2669H359.346M350.299 1.2669H341.252M350.299 1.2669L352.853 2.37588M359.346 1.2669L362.05 2.37588M359.346 1.2669H368.393M0.0740585 11.306H0.105768M9.18 11.306L12.6341 9.88919M9.18 11.306L5.59355 12.7771M9.18 11.306H19.5866M9.18 11.306H0.105768M12.6341 9.88919H2.41933M12.6341 9.88919L15.9632 8.52363M12.6341 9.88919H22.8488M2.41933 9.88919L5.93336 8.52363M2.41933 9.88919H0.105768M2.41933 9.88919L0.105768 10.788M12.5928 5.93557H22.2721M12.5928 5.93557L15.751 4.70821M12.5928 5.93557H2.91359M12.5928 5.93557L9.32218 7.2066M22.2721 5.93557L25.2643 4.70821M22.2721 5.93557L19.1738 7.2066M22.2721 5.93557H31.9515M15.751 4.70821H25.2643M15.751 4.70821L18.8027 3.52243M15.751 4.70821H6.23797M25.2643 4.70821H34.7773M25.2643 4.70821L28.1552 3.52243M0.00613863 33.6693H0.105768M8.40322 33.6693L12.8573 31.3203M8.40322 33.6693L3.72781 36.1352M8.40322 33.6693H21.8388M8.40322 33.6693H0.105768M12.8573 31.3203L17.1053 29.08M12.8573 31.3203H25.9746M12.8573 31.3203H0.105768M4.29142 29.08H17.1053M4.29142 29.08L8.63705 26.9409M4.29142 29.08H0.105768M4.29142 29.08L0.105768 31.1403M12.7904 24.8964H25.0376M12.7904 24.8964L16.7641 22.9405M12.7904 24.8964H0.543154M12.7904 24.8964L8.63705 26.9409M25.0376 24.8964L28.7466 22.9405M25.0376 24.8964L21.1611 26.9409M25.0376 24.8964H37.285M16.7641 22.9405H28.7466M16.7641 22.9405H4.78179M16.7641 22.9405L20.5696 21.0672M28.7466 22.9405L32.2983 21.0672M28.7466 22.9405H40.7289M27.7168 17.5491H38.9689M27.7168 17.5491L31.0769 15.8951M27.7168 17.5491H16.4646M27.7168 17.5491L24.2173 19.2717M38.9689 17.5491L42.1051 15.8951M38.9689 17.5491L35.7028 19.2717M38.9689 17.5491H50.2213M31.0769 15.8951H42.1051M31.0769 15.8951H20.0488M31.0769 15.8951L34.306 14.3057M42.1051 15.8951L45.1189 14.3057M42.1051 15.8951H53.1334M40.3999 11.306H50.8066M40.3999 11.306L43.2783 9.88919M40.3999 11.306H29.9933M40.3999 11.306L37.4113 12.7771M50.8066 11.306L53.4931 9.88919M50.8066 11.306L48.0172 12.7771M50.8066 11.306H61.2132M43.2783 9.88919H53.4931M43.2783 9.88919H33.0636M43.2783 9.88919L46.0526 8.52363M53.4931 9.88919L56.0824 8.52363M53.4931 9.88919H63.7078M51.31 5.93557H60.9894M51.31 5.93557L53.8034 4.70821M51.31 5.93557H41.6309M51.31 5.93557L48.7281 7.2066M60.9894 5.93557L63.3165 4.70821M60.9894 5.93557L58.5795 7.2066M60.9894 5.93557H70.6688M53.8034 4.70821H63.3165M53.8034 4.70821L56.2127 3.52243M53.8034 4.70821H44.2904M63.3165 4.70821H72.8297M63.3165 4.70821L65.5652 3.52243M6.98918 74.3942L13.2578 69.7656M6.98918 74.3942L0.276181 79.3506M6.98918 74.3942H25.9402M6.98918 74.3942H0.105768M13.2578 69.7656L19.1253 65.4335M13.2578 69.7656H31.582M13.2578 69.7656H0.105768M13.1306 57.5511H29.8006M13.1306 57.5511L18.4874 53.9556M13.1306 57.5511L7.4413 61.3701M13.1306 57.5511H0.105768M29.8006 57.5511L34.6703 53.9556M29.8006 57.5511L24.6285 61.3701M29.8006 57.5511H46.4706M18.4874 53.9556H34.6703M18.4874 53.9556H2.30457M18.4874 53.9556L23.5403 50.5638M34.6703 53.9556L39.2639 50.5638M34.6703 53.9556H50.8534M32.8314 44.3273H47.7105M32.8314 44.3273L37.1126 41.4537M32.8314 44.3273H17.9525M32.8314 44.3273L28.3141 47.3597M47.7105 44.3273L51.6024 41.4537M47.7105 44.3273L43.6036 47.3597M47.7105 44.3273H62.5894M37.1126 41.4537H51.6024M37.1126 41.4537H22.6228M37.1126 41.4537L41.1753 38.7266M51.6024 41.4537L55.2958 38.7266M51.6024 41.4537H66.092M48.7097 33.6693H62.1453M48.7097 33.6693L52.2094 31.3203M48.7097 33.6693H35.2742M48.7097 33.6693L45.0363 36.1352M62.1453 33.6693L65.3267 31.3203M62.1453 33.6693L58.8055 36.1352M62.1453 33.6693H75.5807M52.2094 31.3203H65.3267M52.2094 31.3203H39.0921M52.2094 31.3203L55.547 29.08M65.3267 31.3203L68.3609 29.08M65.3267 31.3203H78.4439M61.7797 24.8964H74.0269M61.7797 24.8964L64.6937 22.9405M61.7797 24.8964H49.5323M61.7797 24.8964L58.7337 26.9409M74.0269 24.8964L76.6762 22.9405M74.0269 24.8964L71.258 26.9409M74.0269 24.8964H86.2741M64.6937 22.9405H76.6762M64.6937 22.9405H52.7114M64.6937 22.9405L67.4843 21.0672M76.6762 22.9405L79.2132 21.0672M76.6762 22.9405H88.6585M72.7256 17.5491H83.9778M72.7256 17.5491L75.1897 15.8951M72.7256 17.5491H61.4734M72.7256 17.5491L70.1594 19.2717M83.9778 17.5491L84.2629 17.3388L86.2179 15.8951M83.9778 17.5491L81.645 19.2717M83.9778 17.5491H95.2301M75.1897 15.8951H86.2179M75.1897 15.8951H64.1616M75.1897 15.8951L77.5577 14.3057M86.2179 15.8951L88.3707 14.3057M86.2179 15.8951H97.2462M82.0265 11.306H92.4333M82.0265 11.306L84.1375 9.88919M82.0265 11.306H71.6199M82.0265 11.306L79.8349 12.7771M92.4333 11.306L94.3523 9.88919M92.4333 11.306L91.695 11.8512L90.4408 12.7771M92.4333 11.306H102.84M84.1375 9.88919H94.3523M84.1375 9.88919H73.9228M84.1375 9.88919L86.1719 8.52363M94.3523 9.88919L96.2017 8.52363M94.3523 9.88919H104.567M90.0273 5.93557H99.7067M90.0273 5.93557L91.8558 4.70821M90.0273 5.93557H80.3482M90.0273 5.93557L88.134 7.2066M99.7067 5.93557L100.959 5.0112L101.164 4.85929L101.369 4.70821M99.7067 5.93557L97.9854 7.2066M99.7067 5.93557H109.386M91.8558 4.70821H101.369M91.8558 4.70821L93.6226 3.52243M91.8558 4.70821H82.3428M101.369 4.70821H110.882M101.369 4.70821L102.975 3.52243M13.8554 127.12H39.9476M13.8554 127.12L22.0712 118.454M13.8554 127.12L4.82741 136.643M13.8554 127.12L0.105768 127.12M39.9476 127.12L46.9898 118.454M39.9476 127.12L32.2093 136.643M39.9476 127.12H66.0396M22.0712 118.454H46.9898M22.0712 118.454L29.5798 110.534M22.0712 118.454H0.105768M46.9898 118.454L53.4256 110.534M46.9898 118.454H71.9081M42.8113 96.5777H64.7669M42.8113 96.5777L48.6704 90.3975M42.8113 96.5777H20.8558M42.8113 96.5777L36.4686 103.268M64.7669 96.5777L69.7889 90.3975M64.7669 96.5777L59.3303 103.268M64.7669 96.5777H86.7224M48.6704 90.3975H69.7889M48.6704 90.3975H27.5519M48.6704 90.3975L54.0992 84.6713M69.7889 90.3975L74.4422 84.6713M69.7889 90.3975H90.9074M63.8424 74.3942H82.7935M63.8424 74.3942L68.2306 69.7656M63.8424 74.3942H44.8912M63.8424 74.3942L59.1433 79.3506M82.7935 74.3942L86.5548 69.7656M82.7935 74.3942L78.7657 79.3506M82.7935 74.3942H101.744M68.2306 69.7656H86.5548M68.2306 69.7656H49.9062M68.2306 69.7656L72.3377 65.4335M86.5548 69.7656L90.0752 65.4335M86.5548 69.7656H104.879M79.8103 57.5511H96.4803M79.8103 57.5511L83.2194 53.9556M79.8103 57.5511H63.1405M79.8103 57.5511L76.1899 61.3701M96.4803 57.5511L99.4023 53.9556M96.4803 57.5511L93.3771 61.3701M96.4803 57.5511H113.15M83.2194 53.9556H99.4023M83.2194 53.9556H67.0363M83.2194 53.9556L86.4347 50.5638M99.4023 53.9556L102.158 50.5638M99.4023 53.9556H115.585M92.3472 44.3273H107.226M92.3472 44.3273L95.0716 41.4537M92.3472 44.3273H77.4683M92.3472 44.3273L89.4725 47.3597M107.226 44.3273L109.561 41.4537M107.226 44.3273L104.762 47.3597M107.226 44.3273H122.105M95.0716 41.4537H109.561M95.0716 41.4537H80.5818M95.0716 41.4537L97.657 38.7266M109.561 41.4537L111.777 38.7266M109.561 41.4537H124.051M102.452 33.6693H115.887M102.452 33.6693L104.679 31.3203M102.452 33.6693H89.0161M102.452 33.6693L100.114 36.1352M115.887 33.6693L117.796 31.3203M115.887 33.6693L113.883 36.1352M115.887 33.6693H129.323M104.679 31.3203H117.796M104.679 31.3203H91.5612M104.679 31.3203L106.803 29.08M117.796 31.3203L119.617 29.08M117.796 31.3203H130.913M110.769 24.8964H123.016M110.769 24.8964L112.623 22.9405M110.769 24.8964H98.5216M110.769 24.8964L108.831 26.9409M123.016 24.8964L124.606 22.9405M123.016 24.8964L121.355 26.9409M123.016 24.8964H135.263M112.623 22.9405H124.606M112.623 22.9405H100.641M112.623 22.9405L114.399 21.0672M124.606 22.9405L126.128 21.0672M124.606 22.9405H136.588M117.734 17.5491H128.987M117.734 17.5491L119.303 15.8951M117.734 17.5491H106.482M117.734 17.5491L116.101 19.2717M128.987 17.5491L128.815 17.7605L127.587 19.2717M128.987 17.5491L130.331 15.8951M128.987 17.5491H140.239M119.303 15.8951H130.331M119.303 15.8951H108.274M119.303 15.8951L120.809 14.3057M130.331 15.8951L131.622 14.3057M130.331 15.8951H141.359M123.653 11.306H134.06M123.653 11.306L124.997 9.88919M123.653 11.306H113.247M123.653 11.306L122.259 12.7771M134.06 11.306L135.211 9.88919M134.06 11.306L133.617 11.8512L133.318 12.219L132.865 12.7771M134.06 11.306H144.467M124.997 9.88919H135.211M124.997 9.88919H114.782M124.997 9.88919L126.291 8.52363M135.211 9.88919L135.632 9.37119L135.91 9.0298L136.321 8.52363M135.211 9.88919H145.426M128.745 5.93557H138.424M128.745 5.93557L129.621 5.0112L129.908 4.70821M128.745 5.93557H119.065M128.745 5.93557L127.693 7.04519L127.54 7.2066M138.424 5.93557L139.175 5.0112L139.299 4.85929L139.421 4.70821M138.424 5.93557L137.912 6.56539L137.391 7.2066M138.424 5.93557H148.103M129.908 4.70821H139.421M129.908 4.70821L131.033 3.52243M129.908 4.70821H120.395M139.421 4.70821H148.935M139.421 4.70821L140.385 3.52243M118.224 127.12H144.316M118.224 127.12L121.745 118.454M118.224 127.12H92.1318M118.224 127.12L114.355 136.643M144.316 127.12L146.663 118.454M144.316 127.12L141.737 136.643M144.316 127.12H170.408M121.745 118.454H146.663M121.745 118.454H96.8264M121.745 118.454L124.963 110.534M146.663 118.454L148.809 110.534M146.663 118.454H171.582M130.633 96.5777H152.589M130.633 96.5777L133.144 90.3975M130.633 96.5777H108.678M130.633 96.5777L127.915 103.268M152.589 96.5777L154.263 90.3975M152.589 96.5777L150.777 103.268M152.589 96.5777H174.545M133.144 90.3975H154.263M133.144 90.3975H112.026M133.144 90.3975L135.471 84.6713M154.263 90.3975L155.814 84.6713M154.263 90.3975H175.381M139.647 74.3942H158.598M139.647 74.3942L141.527 69.7656M139.647 74.3942H120.696M139.647 74.3942L137.633 79.3506M158.598 74.3942L159.852 69.7656M158.598 74.3942L157.255 79.3506M158.598 74.3942H177.549M141.527 69.7656H159.852M141.527 69.7656H123.203M141.527 69.7656L143.288 65.4335M159.852 69.7656L161.025 65.4335M159.852 69.7656H178.176M146.49 57.5511H163.16M146.49 57.5511L147.951 53.9556M146.49 57.5511H129.82M146.49 57.5511L144.939 61.3701M163.16 57.5511L164.134 53.9556M163.16 57.5511L162.126 61.3701M163.16 57.5511H179.83M147.951 53.9556H164.134M147.951 53.9556H131.768M147.951 53.9556L149.329 50.5638M164.134 53.9556L165.053 50.5638M164.134 53.9556H180.317M151.863 44.3273H166.742M151.863 44.3273L153.031 41.4537M151.863 44.3273H136.984M151.863 44.3273L150.631 47.3597M166.742 44.3273L167.52 41.4537M166.742 44.3273L165.921 47.3597M166.742 44.3273H181.621M153.031 41.4537H167.52M153.031 41.4537H138.541M153.031 41.4537L154.139 38.7266M167.52 41.4537L168.259 38.7266M167.52 41.4537H182.01M156.194 33.6693H169.629M156.194 33.6693L157.148 31.3203M156.194 33.6693H142.758M156.194 33.6693L155.192 36.1352M169.629 33.6693L170.265 31.3203M169.629 33.6693L168.961 36.1352M169.629 33.6693H183.065M157.148 31.3203H170.265M157.148 31.3203H144.031M157.148 31.3203L157.494 30.4679L158.058 29.08M170.265 31.3203L170.872 29.08M170.265 31.3203H183.383M159.758 24.8964H172.005M159.758 24.8964L160.553 22.9405M159.758 24.8964H147.511M159.758 24.8964L159.139 26.4212L158.927 26.9409M172.005 24.8964L172.207 24.1528L172.535 22.9405M172.005 24.8964L171.452 26.9409M172.005 24.8964H184.253M160.553 22.9405L160.65 22.7018L161.314 21.0672M160.553 22.9405H172.535M160.553 22.9405H148.57M172.535 22.9405L172.728 22.2286L172.792 21.9937L172.855 21.7604L173.043 21.0672M172.535 22.9405H184.518M162.743 17.5491H173.995M162.743 17.5491L163.083 16.7138L163.167 16.5077L163.25 16.3024L163.333 16.0983L163.415 15.8951M162.743 17.5491H151.491M162.743 17.5491L162.043 19.2717M173.995 17.5491L174.333 16.3024L174.389 16.0983L174.444 15.8951M173.995 17.5491L173.529 19.2717M173.995 17.5491H185.248M163.415 15.8951H174.444M163.415 15.8951H152.387M163.415 15.8951L163.822 14.8944L163.902 14.6971L164.061 14.3057M174.444 15.8951L174.715 14.8944L174.768 14.6971L174.821 14.5009L174.874 14.3057M174.444 15.8951H185.472M165.28 11.306H175.687M165.28 11.306L165.856 9.88919M165.28 11.306H154.873M165.28 11.306L165.133 11.6685L164.909 12.219L164.682 12.7771M175.687 11.306L175.638 11.4868L175.339 12.5901L175.288 12.7771M175.687 11.306L176.071 9.88919M175.687 11.306H186.093M165.856 9.88919H176.071M165.856 9.88919H155.641M165.856 9.88919L166.411 8.52363M176.071 9.88919L176.211 9.37119L176.257 9.20007L176.303 9.0298L176.44 8.52363M176.071 9.88919H186.285M167.462 5.93557H177.141M167.462 5.93557L167.838 5.0112L167.961 4.70821M167.462 5.93557H157.783M167.462 5.93557L167.27 6.40693L167.206 6.56539L167.141 6.72469L166.946 7.2066M177.141 5.93557L177.184 5.77986L177.267 5.47032L177.351 5.16354L177.474 4.70821M177.141 5.93557L176.971 6.56539L176.928 6.72469L176.841 7.04519L176.797 7.2066M177.141 5.93557H186.821M167.961 4.70821H177.474M167.961 4.70821L168.383 3.66844L168.443 3.52243M167.961 4.70821H158.448M177.474 4.70821L177.515 4.55778L177.555 4.40797L177.596 4.25879L177.636 4.11026L177.755 3.66844L177.795 3.52243M177.474 4.70821H186.987M222.592 127.12H248.684M222.592 127.12L221.418 118.454M222.592 127.12H196.5M222.592 127.12L223.882 136.643M248.684 127.12L246.337 118.454M248.684 127.12L251.264 136.643M248.684 127.12H274.776M221.418 118.454H246.337M221.418 118.454H196.5M221.418 118.454L220.346 110.534M246.337 118.454L244.191 110.534M246.337 118.454H271.255M218.455 96.5777H240.411M218.455 96.5777L217.619 90.3975M218.455 96.5777H196.5M218.455 96.5777L219.362 103.268M240.411 96.5777L238.737 90.3975M240.411 96.5777L242.223 103.268M240.411 96.5777H262.367M217.619 90.3975H238.737M217.619 90.3975H196.5M217.619 90.3975L216.843 84.6713M238.737 90.3975L237.186 84.6713M238.737 90.3975H259.856M215.451 74.3942H234.402M215.451 74.3942L214.824 69.7656M215.451 74.3942H196.5M215.451 74.3942L216.122 79.3506M234.402 74.3942L233.148 69.7656M234.402 74.3942L235.745 79.3506M234.402 74.3942H253.353M214.824 69.7656H233.148M214.824 69.7656H196.5M214.824 69.7656L214.237 65.4335M233.148 69.7656L231.975 65.4335M233.148 69.7656H251.473M213.17 57.5511H229.84M213.17 57.5511L212.683 53.9556M213.17 57.5511H196.5M213.17 57.5511L213.687 61.3701M229.84 57.5511L228.866 53.9556M229.84 57.5511L230.874 61.3701M229.84 57.5511H246.51M212.683 53.9556H228.866M212.683 53.9556H196.5M212.683 53.9556L212.224 50.5638M228.866 53.9556L227.947 50.5638M228.866 53.9556H245.049M211.379 44.3273H226.258M211.379 44.3273L210.99 41.4537M211.379 44.3273H196.5M211.379 44.3273L211.79 47.3597M226.258 44.3273L225.48 41.4537M226.258 44.3273L227.079 47.3597M226.258 44.3273H241.137M210.99 41.4537H225.48M210.99 41.4537H196.5M210.99 41.4537L210.62 38.7266M225.48 41.4537L224.741 38.7266M225.48 41.4537H239.969M209.935 33.6693H223.371M209.935 33.6693L209.617 31.3203M209.935 33.6693H196.5M209.935 33.6693L210.269 36.1352M223.371 33.6693L222.735 31.3203M223.371 33.6693L224.039 36.1352M223.371 33.6693H236.806M209.617 31.3203H222.735M209.617 31.3203H196.5M209.617 31.3203L209.314 29.08M222.735 31.3203L222.128 29.08M222.735 31.3203H235.852M208.747 24.8964H220.995M208.747 24.8964L208.482 22.9405M208.747 24.8964H196.5M208.747 24.8964L209.024 26.9409M220.995 24.8964L220.53 23.1804L220.465 22.9405M220.995 24.8964L221.548 26.9409M220.995 24.8964H233.242M208.482 22.9405L208.45 22.7018L208.229 21.0672M208.482 22.9405H220.465M208.482 22.9405H196.5M220.465 22.9405L220.272 22.2286L220.208 21.9937L220.145 21.7604L219.957 21.0672M220.465 22.9405H232.447M207.752 17.5491H219.005M207.752 17.5491L207.528 15.8951M207.752 17.5491H196.5M207.752 17.5491L207.839 18.1867L207.868 18.4015L207.897 18.6174L207.956 19.0525L207.986 19.2717M219.005 17.5491L218.667 16.3024L218.556 15.8951M219.005 17.5491L219.471 19.2717M219.005 17.5491H230.257M207.528 15.8951H218.556M207.528 15.8951H196.5M207.528 15.8951L207.313 14.3057M218.556 15.8951L218.285 14.8944L218.232 14.6971L218.179 14.5009L218.126 14.3057M218.556 15.8951H229.585M206.907 11.306H217.313M206.907 11.306L206.715 9.88919M206.907 11.306H196.5M206.907 11.306L207.106 12.7771M217.313 11.306L217.362 11.4868L217.661 12.5901L217.712 12.7771M217.313 11.306L216.93 9.88919M217.313 11.306H227.72M206.715 9.88919H216.93M206.715 9.88919H196.5M206.715 9.88919L206.53 8.52363M216.93 9.88919L216.789 9.37119L216.743 9.20007L216.697 9.0298L216.56 8.52363M216.93 9.88919H227.144M206.179 5.93557H215.859M206.179 5.93557L206.013 4.70821M206.179 5.93557H196.5M206.179 5.93557L206.351 7.2066M215.859 5.93557L215.816 5.77986L215.733 5.47032L215.691 5.31651L215.608 5.0112L215.567 4.85929L215.526 4.70821M215.859 5.93557L216.029 6.56539L216.072 6.72469L216.159 7.04519L216.203 7.2066M215.859 5.93557H225.538M206.013 4.70821L205.993 4.55778L205.972 4.40797L205.952 4.25879L205.852 3.52243M206.013 4.70821H215.526M206.013 4.70821H196.5M215.526 4.70821H225.039M215.526 4.70821L215.445 4.40797L215.404 4.25879L215.364 4.11026L215.245 3.66844L215.205 3.52243M326.96 127.12H353.052M326.96 127.12L321.092 118.454M326.96 127.12H300.868M326.96 127.12L333.409 136.643M353.052 127.12L346.01 118.454M353.052 127.12L360.791 136.643M353.052 127.12H379.145M321.092 118.454H346.01M321.092 118.454H296.174M321.092 118.454L315.729 110.534M346.01 118.454L339.574 110.534M346.01 118.454H370.929M306.278 96.5777H328.233M306.278 96.5777L302.093 90.3975M306.278 96.5777H284.322M306.278 96.5777L310.808 103.268M328.233 96.5777L323.211 90.3975M328.233 96.5777L333.67 103.268M328.233 96.5777H350.189M302.093 90.3975H323.211M302.093 90.3975H280.974M302.093 90.3975L298.215 84.6713M323.211 90.3975L318.558 84.6713M323.211 90.3975H344.33M291.256 74.3942H310.207M291.256 74.3942L288.121 69.7656M291.256 74.3942H272.304M291.256 74.3942L294.612 79.3506M310.207 74.3942L306.445 69.7656M310.207 74.3942L314.234 79.3506M310.207 74.3942H329.158M288.121 69.7656H306.445M288.121 69.7656H269.797M288.121 69.7656L285.187 65.4335M306.445 69.7656L302.925 65.4335M306.445 69.7656H324.769M279.85 57.5511H296.52M279.85 57.5511L277.415 53.9556M279.85 57.5511H263.18M279.85 57.5511L282.436 61.3701M296.52 57.5511L293.598 53.9556M296.52 57.5511L299.623 61.3701M296.52 57.5511H313.19M277.415 53.9556H293.598M277.415 53.9556H261.232M277.415 53.9556L275.118 50.5638M293.598 53.9556L290.842 50.5638M293.598 53.9556H309.781M270.895 44.3273H285.774M270.895 44.3273L268.949 41.4537M270.895 44.3273H256.016M270.895 44.3273L272.948 47.3597M285.774 44.3273L283.439 41.4537M285.774 44.3273L288.238 47.3597M285.774 44.3273H300.653M268.949 41.4537H283.439M268.949 41.4537H254.459M268.949 41.4537L267.102 38.7266M283.439 41.4537L281.223 38.7266M283.439 41.4537H297.928M263.677 33.6693H277.113M263.677 33.6693L262.087 31.3203M263.677 33.6693H250.242M263.677 33.6693L265.347 36.1352M277.113 33.6693L275.204 31.3203M277.113 33.6693L279.117 36.1352M277.113 33.6693H290.548M262.087 31.3203H275.204M262.087 31.3203H248.969M262.087 31.3203L260.57 29.08M275.204 31.3203L273.383 29.08M275.204 31.3203H288.321M257.737 24.8964L257.906 25.147L258.077 25.399L259.121 26.9409M257.737 24.8964H269.984M257.737 24.8964L256.412 22.9405M257.737 24.8964H245.489M269.984 24.8964L268.394 22.9405M269.984 24.8964L271.645 26.9409M269.984 24.8964H282.231M256.412 22.9405H268.394M256.412 22.9405H244.43M256.412 22.9405L255.144 21.0672M268.394 22.9405L266.872 21.0672M268.394 22.9405H280.377M252.761 17.5491H264.013M252.761 17.5491L251.641 15.8951M252.761 17.5491H241.509M252.761 17.5491L253.928 19.2717M264.013 17.5491L263.167 16.5077L262.669 15.8951M264.013 17.5491L265.413 19.2717M264.013 17.5491H275.266M251.641 15.8951H262.669M251.641 15.8951H240.613M251.641 15.8951L250.697 14.5009L250.565 14.3057M262.669 15.8951L261.378 14.3057M262.669 15.8951H273.697M248.533 11.306H258.94M248.533 11.306L248.29 10.9467L247.574 9.88919M248.533 11.306H238.127M248.533 11.306L248.779 11.6685L249.277 12.404L249.529 12.7771M258.94 11.306L257.789 9.88919M258.94 11.306L259.383 11.8512L259.682 12.219L260.135 12.7771M258.94 11.306H269.347M247.574 9.88919H257.789M247.574 9.88919H237.359M247.574 9.88919L246.877 8.86016L246.649 8.52363M257.789 9.88919L257.368 9.37119L257.09 9.0298L256.679 8.52363M257.789 9.88919H268.003M244.897 5.93557H254.576M244.897 5.93557L244.374 5.16354L244.065 4.70821M244.897 5.93557H235.217M244.897 5.93557L245.757 7.2066M254.576 5.93557L253.825 5.0112L253.701 4.85929L253.578 4.70821M254.576 5.93557L255.088 6.56539L255.609 7.2066M254.576 5.93557H264.255M244.065 4.70821H253.578M244.065 4.70821L243.661 4.11026L243.461 3.81507L243.361 3.66844L243.262 3.52243M244.065 4.70821H234.552M253.578 4.70821H263.092M253.578 4.70821L252.615 3.52243M386.567 90.3975H365.448M386.567 90.3975L379.587 84.6713M386.567 90.3975H392.894M386.567 90.3975L392.894 95.5886M367.06 74.3942H386.011M367.06 74.3942L361.418 69.7656M367.06 74.3942H348.109M367.06 74.3942L373.101 79.3506M386.011 74.3942L379.742 69.7656M386.011 74.3942L392.724 79.3506M386.011 74.3942H392.894M361.418 69.7656H379.742M361.418 69.7656H343.094M361.418 69.7656L356.137 65.4335M379.742 69.7656L373.875 65.4335M379.742 69.7656H392.894M346.529 57.5511H363.199M346.529 57.5511L342.147 53.9556M346.529 57.5511H329.859M346.529 57.5511L351.184 61.3701M363.199 57.5511L358.33 53.9556M363.199 57.5511L368.372 61.3701M363.199 57.5511H379.869M342.147 53.9556H358.33M342.147 53.9556H325.964M342.147 53.9556L338.012 50.5638M358.33 53.9556L353.736 50.5638M358.33 53.9556H374.513M330.411 44.3273H345.289M330.411 44.3273L326.908 41.4537M330.411 44.3273H315.532M330.411 44.3273L334.107 47.3597M345.289 44.3273L341.398 41.4537M345.289 44.3273L349.396 47.3597M345.289 44.3273H360.169M326.908 41.4537H341.398M326.908 41.4537H312.418M326.908 41.4537L323.584 38.7266M341.398 41.4537L337.704 38.7266M341.398 41.4537H355.887M317.419 33.6693H330.855M317.419 33.6693L314.556 31.3203M317.419 33.6693H303.984M317.419 33.6693L320.425 36.1352M330.855 33.6693L327.673 31.3203M330.855 33.6693L334.194 36.1352M330.855 33.6693H344.29M314.556 31.3203H327.673M314.556 31.3203H301.439M314.556 31.3203L311.825 29.08M327.673 31.3203L324.639 29.08M327.673 31.3203H340.791M306.726 24.8964H318.973M306.726 24.8964L304.341 22.9405M306.726 24.8964H294.478M306.726 24.8964L309.218 26.9409M318.973 24.8964L316.324 22.9405M318.973 24.8964L321.742 26.9409M318.973 24.8964H331.22M304.341 22.9405H316.324M304.341 22.9405H292.359M304.341 22.9405L302.058 21.0672M316.324 22.9405L313.787 21.0672M316.324 22.9405H328.306M297.77 17.5491H309.022M297.77 17.5491L295.754 15.8951M297.77 17.5491H286.518M297.77 17.5491L299.87 19.2717M309.022 17.5491L306.782 15.8951M309.022 17.5491L311.355 19.2717M309.022 17.5491H320.274M295.754 15.8951H306.782M295.754 15.8951H284.726M295.754 15.8951L293.816 14.3057M306.782 15.8951L304.629 14.3057M306.782 15.8951H317.81M290.16 11.306H300.567M290.16 11.306L288.433 9.88919M290.16 11.306H279.753M290.16 11.306L290.602 11.6685L290.824 11.8512L291.953 12.7771M300.567 11.306L298.648 9.88919M300.567 11.306L302.559 12.7771M300.567 11.306H310.973M288.433 9.88919H298.648M288.433 9.88919H278.218M288.433 9.88919L286.769 8.52363M298.648 9.88919L296.798 8.52363M298.648 9.88919H308.862M283.614 5.93557H293.293M283.614 5.93557L282.118 4.70821M283.614 5.93557H273.935M283.614 5.93557L285.163 7.2066M293.293 5.93557L292.041 5.0112L291.836 4.85929L291.631 4.70821M293.293 5.93557L295.015 7.2066M293.293 5.93557H302.972M282.118 4.70821H291.631M282.118 4.70821L280.851 3.66844L280.672 3.52243M282.118 4.70821H272.605M291.631 4.70821H301.144M291.631 4.70821L290.025 3.52243M389.926 44.3273L384.867 41.4537M389.926 44.3273H375.048M389.926 44.3273L392.894 46.0129M389.926 44.3273H392.894M384.867 41.4537H370.377M384.867 41.4537L380.066 38.7266M384.867 41.4537H392.894M371.161 33.6693H384.597M371.161 33.6693L367.025 31.3203M371.161 33.6693H357.726M371.161 33.6693L375.503 36.1352M384.597 33.6693L380.143 31.3203M384.597 33.6693L389.272 36.1352M384.597 33.6693H392.894M367.025 31.3203H380.143M367.025 31.3203H353.908M367.025 31.3203L363.081 29.08M380.143 31.3203L375.895 29.08M380.143 31.3203H392.894M355.715 24.8964H367.962M355.715 24.8964L352.271 22.9405M355.715 24.8964H343.468M355.715 24.8964L359.315 26.9409M367.962 24.8964L364.253 22.9405M367.962 24.8964L371.839 26.9409M367.962 24.8964H380.21M352.271 22.9405H364.253M352.271 22.9405H340.289M352.271 22.9405L348.973 21.0672M364.253 22.9405L360.702 21.0672M364.253 22.9405H376.236M342.779 17.5491H354.031M342.779 17.5491L339.867 15.8951M342.779 17.5491H331.527M342.779 17.5491L345.812 19.2717M354.031 17.5491L350.895 15.8951M354.031 17.5491L357.297 19.2717M354.031 17.5491H365.283M339.867 15.8951H350.895M339.867 15.8951H328.838M339.867 15.8951L337.068 14.3057M350.895 15.8951L347.881 14.3057M350.895 15.8951H361.923M331.787 11.306H342.193M331.787 11.306L329.292 9.88919M331.787 11.306H321.38M331.787 11.306L334.377 12.7771M342.193 11.306L339.507 9.88919M342.193 11.306L344.983 12.7771M342.193 11.306H352.6M329.292 9.88919H339.507M329.292 9.88919H319.077M329.292 9.88919L326.888 8.52363M339.507 9.88919L336.918 8.52363M339.507 9.88919H349.722M322.331 5.93557H332.011M322.331 5.93557L320.17 4.70821M322.331 5.93557H312.652M322.331 5.93557L324.569 7.2066M332.011 5.93557L329.683 4.70821M332.011 5.93557L334.42 7.2066M332.011 5.93557H341.69M320.17 4.70821H329.683M320.17 4.70821L318.082 3.52243M320.17 4.70821H310.657M329.683 4.70821H339.197M329.683 4.70821L327.435 3.52243M387.788 17.5491L383.979 15.8951M387.788 17.5491H376.535M387.788 17.5491L391.754 19.2717M387.788 17.5491H392.894M383.979 15.8951H372.951M383.979 15.8951L380.32 14.3057M383.979 15.8951H392.894M373.413 11.306H383.82M373.413 11.306L370.151 9.88919M373.413 11.306H363.007M373.413 11.306L376.801 12.7771M383.82 11.306L380.366 9.88919M383.82 11.306L387.406 12.7771M383.82 11.306H392.894M370.151 9.88919H380.366M370.151 9.88919H359.936M370.151 9.88919L367.007 8.52363M380.366 9.88919L377.037 8.52363M380.366 9.88919H390.581M361.048 5.93557H370.728M361.048 5.93557L358.223 4.70821M361.048 5.93557H351.369M361.048 5.93557L363.975 7.2066M370.728 5.93557L367.736 4.70821M370.728 5.93557L373.826 7.2066M370.728 5.93557H380.407M358.223 4.70821H367.736M358.223 4.70821L355.492 3.52243M358.223 4.70821H348.71M367.736 4.70821H377.249M367.736 4.70821L364.845 3.52243M373.826 7.2066L377.037 8.52363M373.826 7.2066H383.678M373.826 7.2066H363.975M380.407 5.93557L377.249 4.70821M380.407 5.93557L383.678 7.2066M380.407 5.93557H390.086M377.249 4.70821H386.762M377.249 4.70821L374.197 3.52243M364.845 3.52243H355.492M364.845 3.52243H374.197M364.845 3.52243L362.05 2.37588M383.678 7.2066L387.067 8.52363M383.678 7.2066H392.894M390.086 5.93557L386.762 4.70821M390.086 5.93557L392.894 6.97209M390.086 5.93557H392.894M386.762 4.70821L383.55 3.52243M386.762 4.70821H392.894M374.197 3.52243H383.55M374.197 3.52243L371.247 2.37588M383.55 3.52243L380.444 2.37588M383.55 3.52243H392.894M377.037 8.52363H387.067M377.037 8.52363H367.007M390.581 9.88919L387.067 8.52363M390.581 9.88919L392.894 10.788M390.581 9.88919H392.894M387.067 8.52363H392.894M367.007 8.52363H356.977M367.007 8.52363L363.975 7.2066M363.975 7.2066H354.123M387.406 12.7771L391.133 14.3057M387.406 12.7771H376.801M387.406 12.7771H392.894M392.926 11.306H392.894M391.133 14.3057H380.32M391.133 14.3057L392.894 15.0282M391.133 14.3057H392.894M380.32 14.3057H369.507M380.32 14.3057L376.801 12.7771M376.801 12.7771H366.195M334.42 7.2066L336.918 8.52363M334.42 7.2066H344.272M334.42 7.2066H324.569M341.69 5.93557L339.197 4.70821M341.69 5.93557L344.272 7.2066M341.69 5.93557H351.369M339.197 4.70821H348.71M339.197 4.70821L336.787 3.52243M327.435 3.52243H336.787M327.435 3.52243L325.261 2.37588M327.435 3.52243H318.082M344.272 7.2066L346.947 8.52363M344.272 7.2066H354.123M351.369 5.93557L348.71 4.70821M351.369 5.93557L354.123 7.2066M348.71 4.70821L346.14 3.52243M336.787 3.52243H346.14M336.787 3.52243L334.458 2.37588M354.123 7.2066L356.977 8.52363M355.492 3.52243H346.14M355.492 3.52243L352.853 2.37588M346.14 3.52243L343.655 2.37588M336.918 8.52363H346.947M336.918 8.52363H326.888M349.722 9.88919L346.947 8.52363M349.722 9.88919L352.6 11.306M349.722 9.88919H359.936M346.947 8.52363H356.977M326.888 8.52363H316.858M326.888 8.52363L324.569 7.2066M356.977 8.52363L359.936 9.88919M324.569 7.2066H314.717M352.6 11.306L355.589 12.7771M352.6 11.306H363.007M359.936 9.88919L363.007 11.306M363.007 11.306L366.195 12.7771M344.983 12.7771L347.881 14.3057M344.983 12.7771H355.589M344.983 12.7771H334.377M355.589 12.7771L358.694 14.3057M355.589 12.7771H366.195M366.195 12.7771L369.507 14.3057M347.881 14.3057H358.694M347.881 14.3057H337.068M361.923 15.8951L358.694 14.3057M361.923 15.8951L365.283 17.5491M361.923 15.8951H372.951M358.694 14.3057H369.507M337.068 14.3057H326.255M337.068 14.3057L334.377 12.7771M369.507 14.3057L372.951 15.8951M334.377 12.7771H323.771M365.283 17.5491L368.783 19.2717M365.283 17.5491H376.535M372.951 15.8951L376.535 17.5491M376.535 17.5491L380.268 19.2717M357.297 19.2717L360.702 21.0672M357.297 19.2717H368.783M357.297 19.2717H345.812M368.783 19.2717L372.43 21.0672M368.783 19.2717H380.268M380.268 19.2717L384.159 21.0672M380.268 19.2717H391.754M391.754 19.2717H392.894M391.754 19.2717L392.894 19.7669M360.702 21.0672H372.43M360.702 21.0672H348.973M376.236 22.9405L372.43 21.0672M376.236 22.9405L380.21 24.8964M376.236 22.9405H388.218M372.43 21.0672H384.159M348.973 21.0672H337.244M348.973 21.0672L345.812 19.2717M384.159 21.0672L388.218 22.9405M384.159 21.0672H392.894M345.812 19.2717H334.326M380.21 24.8964L384.363 26.9409M380.21 24.8964H392.457M388.218 22.9405L392.457 24.8964M388.218 22.9405H392.894M392.956 21.0672H392.894M392.457 24.8964L392.894 25.0982M392.457 24.8964H392.894M371.839 26.9409L375.895 29.08M371.839 26.9409H384.363M371.839 26.9409H359.315M384.363 26.9409L388.709 29.08M384.363 26.9409H392.894M393 25.147L392.894 25.0982M375.895 29.08H388.709M375.895 29.08H363.081M388.709 29.08H392.894M388.709 29.08L392.894 31.1403M363.081 29.08H350.267M363.081 29.08L359.315 26.9409M359.315 26.9409H346.79M389.272 36.1352H375.503M389.272 36.1352L392.894 38.0454M389.272 36.1352H392.894M392.994 33.6693H392.894M375.503 36.1352H361.733M375.503 36.1352L380.066 38.7266M392.934 38.0664L392.894 38.0454M295.015 7.2066L296.798 8.52363M295.015 7.2066H304.866M295.015 7.2066H285.163M302.972 5.93557L301.144 4.70821M302.972 5.93557L304.866 7.2066M302.972 5.93557H312.652M301.144 4.70821H310.657M301.144 4.70821L299.377 3.52243M290.025 3.52243H299.377M290.025 3.52243L289.436 3.08799L288.472 2.37588M290.025 3.52243H280.672M304.866 7.2066L306.828 8.52363M304.866 7.2066H314.717M312.652 5.93557L310.657 4.70821M312.652 5.93557L314.717 7.2066M310.657 4.70821L308.73 3.52243M299.377 3.52243H308.73M299.377 3.52243L297.669 2.37588M314.717 7.2066L316.858 8.52363M318.082 3.52243L316.064 2.37588M318.082 3.52243H308.73M308.73 3.52243L308.494 3.37684L308.024 3.08799L306.867 2.37588M296.798 8.52363H306.828M296.798 8.52363H286.769M308.862 9.88919L306.828 8.52363M308.862 9.88919L310.973 11.306M308.862 9.88919H319.077M306.828 8.52363H316.858M286.769 8.52363H276.739M286.769 8.52363L285.163 7.2066M316.858 8.52363L319.077 9.88919M285.163 7.2066H275.312M310.973 11.306L313.165 12.7771M310.973 11.306H321.38M319.077 9.88919L319.361 10.0633L321.38 11.306M321.38 11.306L323.771 12.7771M302.559 12.7771L302.814 12.9651L304.629 14.3057M302.559 12.7771H313.165M302.559 12.7771H291.953M313.165 12.7771L315.442 14.3057M313.165 12.7771H323.771M323.771 12.7771L326.255 14.3057M304.629 14.3057H315.442M304.629 14.3057H293.816M317.81 15.8951L315.442 14.3057M317.81 15.8951L320.274 17.5491M317.81 15.8951H328.838M315.442 14.3057H326.255M293.816 14.3057H283.003M293.816 14.3057L291.953 12.7771M326.255 14.3057L328.838 15.8951M291.953 12.7771H281.347M320.274 17.5491L322.841 19.2717M320.274 17.5491H331.527M328.838 15.8951L331.527 17.5491M331.527 17.5491L334.326 19.2717M311.355 19.2717L313.787 21.0672M311.355 19.2717H322.841M311.355 19.2717H299.87M322.841 19.2717L325.516 21.0672M322.841 19.2717H334.326M334.326 19.2717L337.244 21.0672M313.787 21.0672H325.516M313.787 21.0672H302.058M328.306 22.9405L325.516 21.0672M328.306 22.9405L331.22 24.8964M328.306 22.9405H340.289M325.516 21.0672H337.244M302.058 21.0672H290.33M302.058 21.0672L299.87 19.2717M337.244 21.0672L340.289 22.9405M299.87 19.2717H288.384M331.22 24.8964L334.266 26.9409M331.22 24.8964H343.468M340.289 22.9405L343.468 24.8964M343.468 24.8964L346.79 26.9409M321.742 26.9409L324.639 29.08M321.742 26.9409H334.266M321.742 26.9409H309.218M334.266 26.9409L337.453 29.08M334.266 26.9409H346.79M346.79 26.9409L350.267 29.08M324.639 29.08H337.453M324.639 29.08H311.825M340.791 31.3203L337.453 29.08M340.791 31.3203L344.29 33.6693M340.791 31.3203H353.908M337.453 29.08H350.267M311.825 29.08H299.011M311.825 29.08L309.218 26.9409M350.267 29.08L353.908 31.3203M309.218 26.9409H296.694M344.29 33.6693L347.964 36.1352M344.29 33.6693H357.726M353.908 31.3203L357.726 33.6693M357.726 33.6693L361.733 36.1352M334.194 36.1352L337.704 38.7266M334.194 36.1352H347.964M334.194 36.1352H320.425M347.964 36.1352L351.825 38.7266M347.964 36.1352H361.733M361.733 36.1352L365.945 38.7266M337.704 38.7266H351.825M337.704 38.7266H323.584M355.887 41.4537L351.825 38.7266M355.887 41.4537L360.169 44.3273M355.887 41.4537H370.377M351.825 38.7266H365.945M323.584 38.7266H309.463M323.584 38.7266L320.425 36.1352M365.945 38.7266L370.377 41.4537M365.945 38.7266H380.066M320.425 36.1352H306.655M360.169 44.3273L364.686 47.3597M360.169 44.3273H375.048M370.377 41.4537L375.048 44.3273M380.066 38.7266H392.894M375.048 44.3273L379.976 47.3597M349.396 47.3597L353.736 50.5638M349.396 47.3597H364.686M349.396 47.3597H334.107M364.686 47.3597L369.46 50.5638M364.686 47.3597H379.976M379.976 47.3597L385.183 50.5638M379.976 47.3597H392.894M353.736 50.5638H369.46M353.736 50.5638H338.012M374.513 53.9556L369.46 50.5638M374.513 53.9556L379.869 57.5511M374.513 53.9556H390.695M369.46 50.5638H385.183M338.012 50.5638H322.289M338.012 50.5638L334.107 47.3597M385.183 50.5638L390.695 53.9556M385.183 50.5638H392.894M334.107 47.3597H318.817M379.869 57.5511L385.559 61.3701M379.869 57.5511H392.894M390.695 53.9556H392.894M390.695 53.9556L392.894 55.3084M368.372 61.3701L373.875 65.4335M368.372 61.3701H385.559M368.372 61.3701H351.184M385.559 61.3701L391.612 65.4335M385.559 61.3701H392.894M373.875 65.4335H391.612M373.875 65.4335H356.137M391.612 65.4335L392.894 66.294M391.612 65.4335H392.894M356.137 65.4335H338.4M356.137 65.4335L351.184 61.3701M351.184 61.3701H333.997M392.724 79.3506H373.101M392.724 79.3506H392.894M392.724 79.3506L392.894 79.4765M373.101 79.3506H353.479M373.101 79.3506L379.587 84.6713M255.609 7.2066L256.006 7.69484L256.139 7.85921L256.679 8.52363M255.609 7.2066H265.46M255.609 7.2066H245.757M264.255 5.93557L263.379 5.0112L263.092 4.70821M264.255 5.93557L265.307 7.04519L265.46 7.2066M264.255 5.93557H273.935M263.092 4.70821H272.605M263.092 4.70821L261.967 3.52243M252.615 3.52243H261.967M252.615 3.52243L252.262 3.08799L251.683 2.37588M252.615 3.52243H243.262M265.46 7.2066L265.768 7.53132L266.709 8.52363M265.46 7.2066H275.312M273.935 5.93557L272.605 4.70821M273.935 5.93557L275.312 7.2066M272.605 4.70821L271.637 3.81507L271.32 3.52243M261.967 3.52243H271.32M261.967 3.52243L260.88 2.37588M275.312 7.2066L276.739 8.52363M280.672 3.52243L280.495 3.37684L279.275 2.37588M280.672 3.52243H271.32M271.32 3.52243L270.849 3.08799L270.078 2.37588M256.679 8.52363H266.709M256.679 8.52363H246.649M268.003 9.88919L266.709 8.52363M268.003 9.88919L269.347 11.306M268.003 9.88919H278.218M266.709 8.52363H276.739M246.649 8.52363H236.619M246.649 8.52363L245.757 7.2066M276.739 8.52363L278.218 9.88919M245.757 7.2066H235.906M269.347 11.306L270.212 12.219L270.388 12.404L270.741 12.7771M269.347 11.306H279.753M278.218 9.88919L279.753 11.306M279.753 11.306L281.347 12.7771M260.135 12.7771L261.378 14.3057M260.135 12.7771H270.741M260.135 12.7771H249.529M270.741 12.7771L272.191 14.3057M270.741 12.7771H281.347M281.347 12.7771L283.003 14.3057M261.378 14.3057H272.191M261.378 14.3057H250.565M273.697 15.8951L272.749 14.8944L272.562 14.6971L272.191 14.3057M273.697 15.8951L275.266 17.5491M273.697 15.8951H284.726M272.191 14.3057H283.003M250.565 14.3057H239.752M250.565 14.3057L249.529 12.7771M283.003 14.3057L284.726 15.8951M249.529 12.7771H238.924M275.266 17.5491L276.899 19.2717M275.266 17.5491H286.518M284.726 15.8951L286.518 17.5491M286.518 17.5491L288.384 19.2717M265.413 19.2717L266.135 20.16L266.318 20.3851L266.872 21.0672M265.413 19.2717H276.899M265.413 19.2717H253.928M276.899 19.2717L278.601 21.0672M276.899 19.2717H288.384M288.384 19.2717L290.33 21.0672M266.872 21.0672H278.601M266.872 21.0672H255.144M280.377 22.9405L278.601 21.0672M280.377 22.9405L282.231 24.8964M280.377 22.9405H292.359M278.601 21.0672H290.33M255.144 21.0672H243.415M255.144 21.0672L254.835 20.6113L253.928 19.2717M290.33 21.0672L292.359 22.9405M253.928 19.2717H242.442M282.231 24.8964L284.169 26.9409M282.231 24.8964H294.478M292.359 22.9405L294.478 24.8964M294.478 24.8964L296.694 26.9409M271.645 26.9409L273.383 29.08M271.645 26.9409H284.169M271.645 26.9409H259.121M284.169 26.9409L286.197 29.08M284.169 26.9409H296.694M296.694 26.9409L299.011 29.08M273.383 29.08H286.197M273.383 29.08H260.57M288.321 31.3203L286.197 29.08M288.321 31.3203L290.548 33.6693M288.321 31.3203H301.439M286.197 29.08H299.011M260.57 29.08H247.756M260.57 29.08L259.121 26.9409M299.011 29.08L301.439 31.3203M259.121 26.9409H246.597M290.548 33.6693L292.886 36.1352M290.548 33.6693H303.984M301.439 31.3203L303.984 33.6693M303.984 33.6693L306.655 36.1352M279.117 36.1352L281.223 38.7266M279.117 36.1352H292.886M279.117 36.1352H265.347M292.886 36.1352L295.343 38.7266M292.886 36.1352H306.655M306.655 36.1352L309.463 38.7266M281.223 38.7266H295.343M281.223 38.7266H267.102M297.928 41.4537L295.343 38.7266M297.928 41.4537L300.653 44.3273M297.928 41.4537H312.418M295.343 38.7266H309.463M267.102 38.7266H252.982M267.102 38.7266L265.347 36.1352M309.463 38.7266L312.418 41.4537M265.347 36.1352H251.578M300.653 44.3273L303.527 47.3597M300.653 44.3273H315.532M312.418 41.4537L315.532 44.3273M315.532 44.3273L318.817 47.3597M288.238 47.3597L290.842 50.5638M288.238 47.3597H303.527M288.238 47.3597H272.948M303.527 47.3597L306.565 50.5638M303.527 47.3597H318.817M318.817 47.3597L322.289 50.5638M290.842 50.5638H306.565M290.842 50.5638H275.118M309.781 53.9556L306.565 50.5638M309.781 53.9556L313.19 57.5511M309.781 53.9556H325.964M306.565 50.5638H322.289M275.118 50.5638H259.394M275.118 50.5638L272.948 47.3597M322.289 50.5638L325.964 53.9556M272.948 47.3597H257.659M313.19 57.5511L316.81 61.3701M313.19 57.5511H329.859M325.964 53.9556L329.859 57.5511M329.859 57.5511L333.997 61.3701M299.623 61.3701L302.925 65.4335M299.623 61.3701H316.81M299.623 61.3701H282.436M316.81 61.3701L320.662 65.4335M316.81 61.3701H333.997M333.997 61.3701L338.4 65.4335M302.925 65.4335H320.662M302.925 65.4335H285.187M324.769 69.7656L320.662 65.4335M324.769 69.7656L329.158 74.3942M324.769 69.7656H343.094M320.662 65.4335H338.4M285.187 65.4335H267.45M285.187 65.4335L282.436 61.3701M338.4 65.4335L343.094 69.7656M282.436 61.3701H265.249M329.158 74.3942L333.857 79.3506M329.158 74.3942H348.109M343.094 69.7656L348.109 74.3942M348.109 74.3942L353.479 79.3506M314.234 79.3506L318.558 84.6713M314.234 79.3506H333.857M314.234 79.3506H294.612M333.857 79.3506L338.901 84.6713M333.857 79.3506H353.479M353.479 79.3506L359.244 84.6713M318.558 84.6713H338.901M318.558 84.6713H298.215M344.33 90.3975L338.901 84.6713M344.33 90.3975L350.189 96.5777M344.33 90.3975H365.448M338.901 84.6713H359.244M298.215 84.6713H277.872M298.215 84.6713L294.612 79.3506M359.244 84.6713L365.448 90.3975M359.244 84.6713H379.587M294.612 79.3506H274.99M350.189 96.5777L356.531 103.268M350.189 96.5777H372.144M365.448 90.3975L372.144 96.5777M379.587 84.6713H392.894M372.144 96.5777L379.393 103.268M372.144 96.5777H392.894M333.67 103.268L339.574 110.534M333.67 103.268H356.531M333.67 103.268H310.808M356.531 103.268L363.42 110.534M356.531 103.268H379.393M379.393 103.268L387.266 110.534M379.393 103.268H392.894M339.574 110.534H363.42M339.574 110.534H315.729M370.929 118.454L363.42 110.534M370.929 118.454L379.145 127.12M370.929 118.454H392.894M363.42 110.534H387.266M315.729 110.534H291.883M315.729 110.534L310.808 103.268M387.266 110.534H392.894M387.266 110.534L392.894 115.729M310.808 103.268H287.946M379.145 127.12L388.173 136.643M379.145 127.12H392.894M360.791 136.643L369.334 147.156M360.791 136.643H388.173M360.791 136.643H333.409M388.173 136.643L392.894 141.623M388.173 136.643H392.894M392.894 147.156L369.334 147.156H340.528M340.528 147.156H311.723M340.528 147.156L333.409 136.643M333.409 136.643H306.027M216.203 7.2066L216.247 7.36864L216.291 7.53132L216.335 7.69484L216.38 7.85921L216.514 8.35631L216.56 8.52363M216.203 7.2066H226.054M216.203 7.2066H206.351M225.538 5.93557L225.162 5.0112L225.039 4.70821M225.538 5.93557L225.859 6.72469L226.054 7.2066M225.538 5.93557H235.217M225.039 4.70821H234.552M225.039 4.70821L224.676 3.81507L224.557 3.52243M215.205 3.52243L215.166 3.37684L215.01 2.80125L214.894 2.37588M215.205 3.52243H224.557M215.205 3.52243H205.852M226.054 7.2066L226.12 7.36864L226.186 7.53132L226.253 7.69484L226.32 7.85921L226.589 8.52363M226.054 7.2066H235.906M235.217 5.93557L234.716 5.0112L234.552 4.70821M235.217 5.93557L235.906 7.2066M234.552 4.70821L234.228 4.11026L233.989 3.66844L233.91 3.52243M224.557 3.52243L224.498 3.37684L224.381 3.08799L224.264 2.80125L224.207 2.65883L224.092 2.37588M224.557 3.52243H233.91M235.906 7.2066L236.439 8.18983L236.619 8.52363M243.262 3.52243L242.678 2.65883L242.486 2.37588M243.262 3.52243H233.91M233.91 3.52243L233.365 2.51704L233.289 2.37588M216.56 8.52363H226.589M216.56 8.52363H206.53M227.144 9.88919L226.589 8.52363M227.144 9.88919L227.72 11.306M227.144 9.88919H237.359M226.589 8.52363H236.619M206.53 8.52363H196.5M206.53 8.52363L206.351 7.2066M236.619 8.52363L237.359 9.88919M206.351 7.2066H196.5M227.72 11.306L227.867 11.6685L228.091 12.219L228.318 12.7771M227.72 11.306H238.127M237.359 9.88919L237.454 10.0633L238.127 11.306M238.127 11.306L238.225 11.4868L238.323 11.6685L238.422 11.8512L238.924 12.7771M217.712 12.7771L218.126 14.3057M217.712 12.7771H228.318M217.712 12.7771H207.106M228.318 12.7771L228.939 14.3057M228.318 12.7771H238.924M238.924 12.7771L239.542 13.9179L239.647 14.1114L239.752 14.3057M218.126 14.3057H228.939M218.126 14.3057H207.313M229.585 15.8951L229.667 16.0983L229.75 16.3024L229.833 16.5077L230.257 17.5491M229.585 15.8951L229.259 15.0925L229.178 14.8944L229.098 14.6971L228.939 14.3057M229.585 15.8951H240.613M228.939 14.3057H239.752M207.313 14.3057H196.5M207.313 14.3057L207.106 12.7771M239.752 14.3057L240.613 15.8951M207.106 12.7771H196.5M230.257 17.5491L230.868 19.0525L230.957 19.2717M230.257 17.5491H241.509M240.613 15.8951L240.834 16.3024L241.509 17.5491M241.509 17.5491L241.854 18.1867L242.442 19.2717M219.471 19.2717L219.712 20.16L219.773 20.3851L219.957 21.0672M219.471 19.2717H230.957M219.471 19.2717H207.986M230.957 19.2717L231.686 21.0672M230.957 19.2717H242.442M242.442 19.2717L243.415 21.0672M219.957 21.0672H231.686M219.957 21.0672H208.229M232.447 22.9405L231.686 21.0672M232.447 22.9405L233.242 24.8964M232.447 22.9405H244.43M231.686 21.0672H243.415M208.229 21.0672H196.5M208.229 21.0672L208.167 20.6113L208.045 19.7135L207.986 19.2717M243.415 21.0672L244.43 22.9405M207.986 19.2717H196.5M233.242 24.8964L233.861 26.4212L234.073 26.9409M233.242 24.8964H245.489M244.43 22.9405L245.489 24.8964M245.489 24.8964L246.037 25.9072L246.597 26.9409M221.548 26.9409L222.128 29.08M221.548 26.9409H234.073M221.548 26.9409H209.024M234.073 26.9409L234.942 29.08M234.073 26.9409H246.597M246.597 26.9409L247.756 29.08M222.128 29.08H234.942M222.128 29.08H209.314M235.852 31.3203L235.62 30.7504L234.942 29.08M235.852 31.3203L236.806 33.6693M235.852 31.3203H248.969M234.942 29.08H247.756M209.314 29.08H196.5M209.314 29.08L209.024 26.9409M247.756 29.08L248.969 31.3203M209.024 26.9409H196.5M236.806 33.6693L237.808 36.1352M236.806 33.6693H250.242M248.969 31.3203L250.242 33.6693M250.242 33.6693L251.578 36.1352M224.039 36.1352L224.741 38.7266M224.039 36.1352H237.808M224.039 36.1352H210.269M237.808 36.1352L238.861 38.7266M237.808 36.1352H251.578M251.578 36.1352L252.982 38.7266M224.741 38.7266H238.861M224.741 38.7266H210.62M239.969 41.4537L238.861 38.7266M239.969 41.4537L241.137 44.3273M239.969 41.4537H254.459M238.861 38.7266H252.982M210.62 38.7266H196.5M210.62 38.7266L210.312 36.4521L210.269 36.1352M252.982 38.7266L254.459 41.4537M210.269 36.1352H196.5M241.137 44.3273L242.369 47.3597M241.137 44.3273H256.016M254.459 41.4537L255.619 43.5947L256.016 44.3273M256.016 44.3273L257.659 47.3597M227.079 47.3597L227.947 50.5638M227.079 47.3597H242.369M227.079 47.3597H211.79M242.369 47.3597L243.671 50.5638M242.369 47.3597H257.659M257.659 47.3597L259.394 50.5638M227.947 50.5638H243.671M227.947 50.5638H212.224M245.049 53.9556L243.671 50.5638M245.049 53.9556L246.51 57.5511M245.049 53.9556H261.232M243.671 50.5638H259.394M212.224 50.5638H196.5M212.224 50.5638L211.79 47.3597M259.394 50.5638L261.232 53.9556M211.79 47.3597H196.5M246.51 57.5511L248.061 61.3701M246.51 57.5511H263.18M261.232 53.9556L263.18 57.5511M263.18 57.5511L265.249 61.3701M230.874 61.3701L231.975 65.4335M230.874 61.3701H248.061M230.874 61.3701H213.687M248.061 61.3701L249.712 65.4335M248.061 61.3701H265.249M265.249 61.3701L267.45 65.4335M231.975 65.4335H249.712M231.975 65.4335H214.237M251.473 69.7656L249.712 65.4335M251.473 69.7656L253.353 74.3942M251.473 69.7656H269.797M249.712 65.4335H267.45M214.237 65.4335H196.5M214.237 65.4335L213.687 61.3701M267.45 65.4335L269.797 69.7656M213.687 61.3701H196.5M253.353 74.3942L255.367 79.3506M253.353 74.3942H272.304M269.797 69.7656L272.304 74.3942M272.304 74.3942L274.99 79.3506M235.745 79.3506L237.186 84.6713M235.745 79.3506H255.367M235.745 79.3506H216.122M255.367 79.3506L257.529 84.6713M255.367 79.3506H274.99M274.99 79.3506L277.872 84.6713M237.186 84.6713H257.529M237.186 84.6713H216.843M259.856 90.3975L257.529 84.6713M259.856 90.3975L262.367 96.5777M259.856 90.3975H280.974M257.529 84.6713H277.872M216.843 84.6713H196.5M216.843 84.6713L216.122 79.3506M277.872 84.6713L280.974 90.3975M216.122 79.3506H196.5M262.367 96.5777L265.085 103.268M262.367 96.5777H284.322M280.974 90.3975L284.322 96.5777M284.322 96.5777L287.946 103.268M242.223 103.268L244.191 110.534M242.223 103.268H265.085M242.223 103.268H219.362M265.085 103.268L268.037 110.534M265.085 103.268H287.946M287.946 103.268L291.883 110.534M244.191 110.534H268.037M244.191 110.534H220.346M271.255 118.454L268.037 110.534M271.255 118.454L274.776 127.12M271.255 118.454H296.174M268.037 110.534H291.883M220.346 110.534H196.5M220.346 110.534L219.362 103.268M291.883 110.534L296.174 118.454M219.362 103.268H196.5M274.776 127.12L278.645 136.643M274.776 127.12H300.868M296.174 118.454L300.868 127.12M300.868 127.12L306.027 136.643M251.264 136.643L254.111 147.156M251.264 136.643H278.645M251.264 136.643H223.882M278.645 136.643L282.917 147.156M278.645 136.643H306.027M306.027 136.643L311.723 147.156M282.917 147.156H254.111M282.917 147.156H311.723M254.111 147.156H225.306M225.306 147.156H196.5M225.306 147.156L223.882 136.643M223.882 136.643H196.5M176.797 7.2066L176.753 7.36864L176.709 7.53132L176.665 7.69484L176.62 7.85921L176.531 8.18983L176.486 8.35631L176.44 8.52363M176.797 7.2066H186.649M176.797 7.2066H166.946M186.821 5.93557L186.987 4.70821M186.821 5.93557L186.649 7.2066M186.821 5.93557H196.5M186.987 4.70821L187.007 4.55778L187.028 4.40797L187.048 4.25879L187.148 3.52243M186.987 4.70821H196.5M177.795 3.52243L177.834 3.37684L177.99 2.80125L178.106 2.37588M177.795 3.52243H187.148M177.795 3.52243H168.443M186.649 7.2066L186.626 7.36864L186.605 7.53132L186.582 7.69484L186.47 8.52363M186.649 7.2066H196.5M196.5 5.93557V4.70821M196.5 5.93557V7.2066M196.5 4.70821V3.52243M187.148 3.52243H196.5M187.148 3.52243L187.206 3.08799L187.226 2.9443L187.303 2.37588M196.5 7.2066V8.52363M205.852 3.52243L205.794 3.08799L205.774 2.9443L205.755 2.80125L205.735 2.65883L205.716 2.51704L205.697 2.37588M205.852 3.52243H196.5M196.5 3.52243V2.37588M176.44 8.52363H186.47M176.44 8.52363H166.411M186.285 9.88919L186.262 10.0633L186.238 10.2384L186.093 11.306M186.285 9.88919L186.47 8.52363M186.285 9.88919H196.5M186.47 8.52363H196.5M166.411 8.52363H156.381M166.411 8.52363L166.546 8.18983L166.614 8.0242L166.68 7.85921L166.747 7.69484L166.814 7.53132L166.88 7.36864L166.946 7.2066M196.5 8.52363V9.88919M166.946 7.2066H157.094M186.093 11.306L185.894 12.7771M186.093 11.306H196.5M196.5 9.88919V11.306M196.5 11.306V12.7771M175.288 12.7771L174.874 14.3057M175.288 12.7771H185.894M175.288 12.7771H164.682M185.894 12.7771L185.687 14.3057M185.894 12.7771H196.5M196.5 12.7771V14.3057M174.874 14.3057H185.687M174.874 14.3057H164.061M185.472 15.8951L185.687 14.3057M185.472 15.8951L185.248 17.5491M185.472 15.8951H196.5M185.687 14.3057H196.5M164.061 14.3057H153.248M164.061 14.3057L164.682 12.7771M196.5 14.3057V15.8951M164.682 12.7771H154.076M185.248 17.5491L185.162 18.1867L185.074 18.8343L185.014 19.2717M185.248 17.5491H196.5M196.5 15.8951V17.5491M196.5 17.5491V19.2717M173.529 19.2717L173.288 20.16L173.227 20.3851L173.043 21.0672M173.529 19.2717H185.014M173.529 19.2717H162.043M185.014 19.2717L184.955 19.7135L184.833 20.6113L184.771 21.0672M185.014 19.2717H196.5M196.5 19.2717V21.0672M173.043 21.0672H184.771M173.043 21.0672H161.314M184.518 22.9405L184.55 22.7018L184.771 21.0672M184.518 22.9405L184.253 24.8964M184.518 22.9405H196.5M184.771 21.0672H196.5M161.314 21.0672H149.585M161.314 21.0672L162.043 19.2717M196.5 21.0672V22.9405M162.043 19.2717H150.558M184.253 24.8964L183.976 26.9409M184.253 24.8964H196.5M196.5 22.9405V24.8964M196.5 24.8964V26.9409M171.452 26.9409L170.872 29.08M171.452 26.9409H183.976M171.452 26.9409H158.927M183.976 26.9409L183.686 29.08M183.976 26.9409H196.5M196.5 26.9409V29.08M170.872 29.08H183.686M170.872 29.08H158.058M183.383 31.3203L183.686 29.08M183.383 31.3203L183.065 33.6693M183.383 31.3203H196.5M183.686 29.08H196.5M158.058 29.08H145.244M158.058 29.08L158.927 26.9409M196.5 29.08V31.3203M158.927 26.9409H146.403M183.065 33.6693L182.731 36.1352M183.065 33.6693H196.5M196.5 31.3203V33.6693M196.5 33.6693V36.1352M168.961 36.1352L168.259 38.7266M168.961 36.1352H182.731M168.961 36.1352H155.192M182.731 36.1352L182.38 38.7266M182.731 36.1352H196.5M196.5 36.1352V38.7266M168.259 38.7266H182.38M168.259 38.7266H154.139M182.01 41.4537L182.38 38.7266M182.01 41.4537L181.621 44.3273M182.01 41.4537H196.5M182.38 38.7266H196.5M154.139 38.7266H140.018M154.139 38.7266L155.192 36.1352M196.5 38.7266V41.4537M155.192 36.1352H141.422M181.621 44.3273L181.21 47.3597M181.621 44.3273H196.5M196.5 41.4537V44.3273M196.5 44.3273V47.3597M165.921 47.3597L165.053 50.5638M165.921 47.3597H181.21M165.921 47.3597H150.631M181.21 47.3597L180.776 50.5638M181.21 47.3597H196.5M196.5 47.3597V50.5638M165.053 50.5638H180.776M165.053 50.5638H149.329M180.317 53.9556L180.776 50.5638M180.317 53.9556L179.83 57.5511M180.317 53.9556H196.5M180.776 50.5638H196.5M149.329 50.5638H133.606M149.329 50.5638L150.631 47.3597M196.5 50.5638V53.9556M150.631 47.3597H135.341M179.83 57.5511L179.313 61.3701M179.83 57.5511H196.5M196.5 53.9556V57.5511M196.5 57.5511V61.3701M162.126 61.3701L161.025 65.4335M162.126 61.3701H179.313M162.126 61.3701H144.939M179.313 61.3701L178.763 65.4335M179.313 61.3701H196.5M196.5 61.3701V65.4335M161.025 65.4335H178.763M161.025 65.4335H143.288M178.176 69.7656L178.763 65.4335M178.176 69.7656L177.549 74.3942M178.176 69.7656H196.5M178.763 65.4335H196.5M143.288 65.4335H125.55M143.288 65.4335L144.939 61.3701M196.5 65.4335V69.7656M144.939 61.3701H127.751M177.549 74.3942L176.878 79.3506M177.549 74.3942H196.5M196.5 69.7656V74.3942M196.5 74.3942V79.3506M157.255 79.3506L155.814 84.6713M157.255 79.3506H176.878M157.255 79.3506H137.633M176.878 79.3506L176.157 84.6713M176.878 79.3506H196.5M196.5 79.3506V84.6713M155.814 84.6713H176.157M155.814 84.6713H135.471M175.381 90.3975L176.157 84.6713M175.381 90.3975L174.545 96.5777M175.381 90.3975H196.5M176.157 84.6713H196.5M135.471 84.6713H115.128M135.471 84.6713L137.633 79.3506M196.5 84.6713V90.3975M137.633 79.3506H118.01M174.545 96.5777L173.638 103.268M174.545 96.5777H196.5M196.5 90.3975V96.5777M196.5 96.5777V103.268M150.777 103.268L148.809 110.534M150.777 103.268H173.638M150.777 103.268H127.915M173.638 103.268L172.654 110.534M173.638 103.268H196.5M196.5 103.268V110.534M148.809 110.534H172.654M148.809 110.534H124.963M171.582 118.454L172.654 110.534M171.582 118.454L170.408 127.12M171.582 118.454H196.5M172.654 110.534H196.5M124.963 110.534H101.117M124.963 110.534L127.915 103.268M196.5 110.534V118.454M127.915 103.268H105.054M170.408 127.12L169.118 136.643M170.408 127.12H196.5M196.5 118.454V127.12M196.5 127.12V136.643M141.737 136.643L138.889 147.156M141.737 136.643H169.118M141.737 136.643H114.355M169.118 136.643L167.694 147.156M169.118 136.643H196.5M196.5 136.643V147.156M167.694 147.156H138.889M167.694 147.156H196.5M138.889 147.156H110.083M110.083 147.156H81.2773M110.083 147.156L114.355 136.643M114.355 136.643H86.9728M137.391 7.2066L136.861 7.85921L136.321 8.52363M137.391 7.2066H147.243M137.391 7.2066H127.54M148.103 5.93557L148.935 4.70821M148.103 5.93557L147.243 7.2066M148.103 5.93557H157.783M148.935 4.70821H158.448M148.935 4.70821L149.539 3.81507L149.738 3.52243M140.385 3.52243H149.738M140.385 3.52243L140.738 3.08799L141.317 2.37588M140.385 3.52243H131.033M147.243 7.2066L146.351 8.52363M147.243 7.2066H157.094M157.783 5.93557L158.448 4.70821M157.783 5.93557L157.094 7.2066M158.448 4.70821L158.772 4.11026L159.011 3.66844L159.09 3.52243M149.738 3.52243H159.09M149.738 3.52243L150.322 2.65883L150.514 2.37588M157.094 7.2066L156.561 8.18983L156.381 8.52363M168.443 3.52243L168.502 3.37684L168.619 3.08799L168.793 2.65883L168.908 2.37588M168.443 3.52243H159.09M159.09 3.52243L159.169 3.37684L159.325 3.08799L159.711 2.37588M136.321 8.52363H146.351M136.321 8.52363H126.291M145.426 9.88919L145.544 9.71574L145.66 9.54294L146.123 8.86016L146.351 8.52363M145.426 9.88919L144.71 10.9467L144.467 11.306M145.426 9.88919H155.641M146.351 8.52363H156.381M126.291 8.52363H116.261M126.291 8.52363L127.232 7.53132L127.54 7.2066M156.381 8.52363L155.641 9.88919M127.54 7.2066H117.688M144.467 11.306L144.344 11.4868L144.221 11.6685L143.849 12.219L143.723 12.404L143.47 12.7771M144.467 11.306H154.873M155.641 9.88919L155.546 10.0633L154.873 11.306M154.873 11.306L154.775 11.4868L154.677 11.6685L154.578 11.8512L154.076 12.7771M132.865 12.7771L131.622 14.3057M132.865 12.7771H143.47M132.865 12.7771H122.259M143.47 12.7771L142.435 14.3057M143.47 12.7771H154.076M154.076 12.7771L153.248 14.3057M131.622 14.3057H142.435M131.622 14.3057H120.809M141.359 15.8951L142.435 14.3057M141.359 15.8951L140.239 17.5491M141.359 15.8951H152.387M142.435 14.3057H153.248M120.809 14.3057H109.997M120.809 14.3057L122.259 12.7771M153.248 14.3057L152.387 15.8951M122.259 12.7771H111.653M140.239 17.5491L139.072 19.2717M140.239 17.5491H151.491M152.387 15.8951L152.166 16.3024L151.491 17.5491M151.491 17.5491L151.146 18.1867L150.795 18.8343L150.558 19.2717M127.587 19.2717L126.865 20.16L126.128 21.0672M127.587 19.2717H139.072M127.587 19.2717H116.101M139.072 19.2717L137.856 21.0672M139.072 19.2717H150.558M150.558 19.2717L149.585 21.0672M126.128 21.0672H137.856M126.128 21.0672H114.399M136.588 22.9405L137.856 21.0672M136.588 22.9405L135.263 24.8964M136.588 22.9405H148.57M137.856 21.0672H149.585M114.399 21.0672H102.67M114.399 21.0672L116.101 19.2717M149.585 21.0672L148.57 22.9405M116.101 19.2717H104.616M135.263 24.8964L134.923 25.399L133.879 26.9409M135.263 24.8964H147.511M148.57 22.9405L147.511 24.8964M147.511 24.8964L147.375 25.147L146.963 25.9072L146.403 26.9409M121.355 26.9409L119.617 29.08M121.355 26.9409H133.879M121.355 26.9409H108.831M133.879 26.9409L132.43 29.08M133.879 26.9409H146.403M146.403 26.9409L145.244 29.08M119.617 29.08H132.43M119.617 29.08H106.803M130.913 31.3203L131.87 29.9079L132.43 29.08M130.913 31.3203L129.323 33.6693M130.913 31.3203H144.031M132.43 29.08H145.244M106.803 29.08H93.9888M106.803 29.08L108.831 26.9409M145.244 29.08L144.031 31.3203M108.831 26.9409H96.3064M129.323 33.6693L127.653 36.1352M129.323 33.6693H142.758M144.031 31.3203L142.758 33.6693M142.758 33.6693L141.422 36.1352M113.883 36.1352L111.777 38.7266M113.883 36.1352H127.653M113.883 36.1352H100.114M127.653 36.1352L125.898 38.7266M127.653 36.1352H141.422M141.422 36.1352L140.018 38.7266M111.777 38.7266H125.898M111.777 38.7266H97.657M124.051 41.4537L125.898 38.7266M124.051 41.4537L122.105 44.3273M124.051 41.4537H138.541M125.898 38.7266H140.018M97.657 38.7266H83.5367M97.657 38.7266L100.114 36.1352M140.018 38.7266L138.541 41.4537M100.114 36.1352H86.3445M122.105 44.3273L120.052 47.3597M122.105 44.3273H136.984M138.541 41.4537L136.984 44.3273M136.984 44.3273L135.341 47.3597M104.762 47.3597L102.158 50.5638M104.762 47.3597H120.052M104.762 47.3597H89.4725M120.052 47.3597L117.882 50.5638M120.052 47.3597H135.341M135.341 47.3597L133.606 50.5638M102.158 50.5638H117.882M102.158 50.5638H86.4347M115.585 53.9556L117.882 50.5638M115.585 53.9556L113.15 57.5511M115.585 53.9556H131.768M117.882 50.5638H133.606M86.4347 50.5638H70.7111M86.4347 50.5638L89.4725 47.3597M133.606 50.5638L131.768 53.9556M89.4725 47.3597H74.183M113.15 57.5511L110.564 61.3701M113.15 57.5511H129.82M131.768 53.9556L129.82 57.5511M129.82 57.5511L127.751 61.3701M93.3771 61.3701L90.0752 65.4335M93.3771 61.3701H110.564M93.3771 61.3701H76.1899M110.564 61.3701L107.813 65.4335M110.564 61.3701H127.751M127.751 61.3701L125.55 65.4335M90.0752 65.4335H107.813M90.0752 65.4335H72.3377M104.879 69.7656L107.813 65.4335M104.879 69.7656L101.744 74.3942M104.879 69.7656H123.203M107.813 65.4335H125.55M72.3377 65.4335H54.6003M72.3377 65.4335L76.1899 61.3701M125.55 65.4335L123.203 69.7656M76.1899 61.3701H59.0028M101.744 74.3942L98.3882 79.3506M101.744 74.3942H120.696M123.203 69.7656L120.696 74.3942M120.696 74.3942L118.01 79.3506M78.7657 79.3506L74.4422 84.6713M78.7657 79.3506H98.3882M78.7657 79.3506H59.1433M98.3882 79.3506L94.7852 84.6713M98.3882 79.3506H118.01M118.01 79.3506L115.128 84.6713M74.4422 84.6713H94.7852M74.4422 84.6713H54.0992M90.9074 90.3975L94.7852 84.6713M90.9074 90.3975L86.7224 96.5777M90.9074 90.3975H112.026M94.7852 84.6713H115.128M54.0992 84.6713H33.7563M54.0992 84.6713L59.1433 79.3506M115.128 84.6713L112.026 90.3975M59.1433 79.3506H39.5209M86.7224 96.5777L82.1918 103.268M86.7224 96.5777H108.678M112.026 90.3975L108.678 96.5777M108.678 96.5777L105.054 103.268M59.3303 103.268L53.4256 110.534M59.3303 103.268H82.1918M59.3303 103.268H36.4686M82.1918 103.268L77.2713 110.534M82.1918 103.268H105.054M105.054 103.268L101.117 110.534M53.4256 110.534H77.2713M53.4256 110.534H29.5798M71.9081 118.454L77.2713 110.534M71.9081 118.454L66.0396 127.12M71.9081 118.454H96.8264M77.2713 110.534H101.117M29.5798 110.534H5.7341M29.5798 110.534L36.4686 103.268M101.117 110.534L96.8264 118.454M36.4686 103.268H13.6071M66.0396 127.12L59.5911 136.643M66.0396 127.12H92.1318M96.8264 118.454L92.1318 127.12M92.1318 127.12L86.9728 136.643M32.2093 136.643L23.6661 147.156M32.2093 136.643H59.5911M32.2093 136.643H4.82741M59.5911 136.643L52.4718 147.156M59.5911 136.643H86.9728M86.9728 136.643L81.2773 147.156M0.105768 147.156L23.6661 147.156H52.4718M52.4718 147.156H81.2773M4.82741 136.643L0.105768 141.623M4.82741 136.643H0.105768M97.9854 7.2066L96.2017 8.52363M97.9854 7.2066H107.837M97.9854 7.2066H88.134M109.386 5.93557L110.882 4.70821M109.386 5.93557L107.837 7.2066M109.386 5.93557H119.065M110.882 4.70821H120.395M110.882 4.70821L112.328 3.52243M102.975 3.52243H112.328M102.975 3.52243L103.564 3.08799L104.528 2.37588M102.975 3.52243H93.6226M107.837 7.2066L106.231 8.52363M107.837 7.2066H117.688M119.065 5.93557L120.395 4.70821M119.065 5.93557L117.688 7.2066M120.395 4.70821L121.363 3.81507L121.68 3.52243M112.328 3.52243L112.505 3.37684L113.725 2.37588M112.328 3.52243H121.68M117.688 7.2066L116.261 8.52363M131.033 3.52243L132.12 2.37588M131.033 3.52243H121.68M121.68 3.52243L122.151 3.08799L122.922 2.37588M96.2017 8.52363H106.231M96.2017 8.52363H86.1719M104.567 9.88919L106.231 8.52363M104.567 9.88919L102.84 11.306M104.567 9.88919H114.782M106.231 8.52363H116.261M86.1719 8.52363H76.142M86.1719 8.52363L88.134 7.2066M116.261 8.52363L114.782 9.88919M88.134 7.2066H78.2825M102.84 11.306L102.398 11.6685L101.047 12.7771M102.84 11.306H113.247M114.782 9.88919L113.247 11.306M113.247 11.306L111.653 12.7771M90.4408 12.7771L90.1865 12.9651L88.3707 14.3057M90.4408 12.7771H101.047M90.4408 12.7771H79.8349M101.047 12.7771L99.1836 14.3057M101.047 12.7771H111.653M111.653 12.7771L111.449 12.9651L109.997 14.3057M88.3707 14.3057H99.1836M88.3707 14.3057H77.5577M97.2462 15.8951L99.1836 14.3057M97.2462 15.8951L95.2301 17.5491M97.2462 15.8951H108.274M99.1836 14.3057H109.997M77.5577 14.3057H66.7448M77.5577 14.3057L79.8349 12.7771M109.997 14.3057L108.274 15.8951M79.8349 12.7771H69.229M95.2301 17.5491L93.1304 19.2717M95.2301 17.5491H106.482M108.274 15.8951L106.482 17.5491M106.482 17.5491L104.616 19.2717M81.645 19.2717L79.2132 21.0672M81.645 19.2717H93.1304M81.645 19.2717H70.1594M93.1304 19.2717L90.9418 21.0672M93.1304 19.2717H104.616M104.616 19.2717L102.67 21.0672M79.2132 21.0672H90.9418M79.2132 21.0672H67.4843M88.6585 22.9405L90.9418 21.0672M88.6585 22.9405L86.2741 24.8964M88.6585 22.9405H100.641M90.9418 21.0672H102.67M67.4843 21.0672H55.7557M67.4843 21.0672L70.1594 19.2717M102.67 21.0672L100.641 22.9405M70.1594 19.2717H58.6738M86.2741 24.8964L83.7822 26.9409M86.2741 24.8964H98.5216M100.641 22.9405L98.5216 24.8964M98.5216 24.8964L96.3064 26.9409M71.258 26.9409L68.3609 29.08M71.258 26.9409H83.7822M71.258 26.9409H58.7337M83.7822 26.9409L81.1749 29.08M83.7822 26.9409H96.3064M96.3064 26.9409L93.9888 29.08M68.3609 29.08H81.1749M68.3609 29.08H55.547M78.4439 31.3203L81.1749 29.08M78.4439 31.3203L75.5807 33.6693M78.4439 31.3203H91.5612M81.1749 29.08H93.9888M55.547 29.08H42.7331M55.547 29.08L58.7337 26.9409M93.9888 29.08L91.5612 31.3203M58.7337 26.9409H46.2095M75.5807 33.6693L72.575 36.1352M75.5807 33.6693H89.0161M91.5612 31.3203L89.0161 33.6693M89.0161 33.6693L86.3445 36.1352M58.8055 36.1352L55.2958 38.7266M58.8055 36.1352H72.575M58.8055 36.1352H45.0363M72.575 36.1352L69.4162 38.7266M72.575 36.1352H86.3445M86.3445 36.1352L83.5367 38.7266M55.2958 38.7266H69.4162M55.2958 38.7266H41.1753M66.092 41.4537L69.4162 38.7266M66.092 41.4537L62.5894 44.3273M66.092 41.4537H80.5818M69.4162 38.7266H83.5367M41.1753 38.7266H27.0549M41.1753 38.7266L45.0363 36.1352M83.5367 38.7266L80.5818 41.4537M45.0363 36.1352H31.2668M62.5894 44.3273L58.8933 47.3597M62.5894 44.3273H77.4683M80.5818 41.4537L77.4683 44.3273M77.4683 44.3273L74.183 47.3597M43.6036 47.3597L39.2639 50.5638M43.6036 47.3597H58.8933M43.6036 47.3597H28.3141M58.8933 47.3597L54.9875 50.5638M58.8933 47.3597H74.183M74.183 47.3597L70.7111 50.5638M39.2639 50.5638H54.9875M39.2639 50.5638H23.5403M50.8534 53.9556L54.9875 50.5638M50.8534 53.9556L46.4706 57.5511M50.8534 53.9556H67.0363M54.9875 50.5638H70.7111M23.5403 50.5638H7.8167M23.5403 50.5638L28.3141 47.3597M70.7111 50.5638L67.0363 53.9556M28.3141 47.3597H13.0244M46.4706 57.5511L41.8156 61.3701M46.4706 57.5511H63.1405M67.0363 53.9556L63.1405 57.5511M63.1405 57.5511L59.0028 61.3701M24.6285 61.3701L19.1253 65.4335M24.6285 61.3701H41.8156M24.6285 61.3701H7.4413M41.8156 61.3701L36.8628 65.4335M41.8156 61.3701H59.0028M59.0028 61.3701L54.6003 65.4335M19.1253 65.4335H36.8628M19.1253 65.4335H1.38785M31.582 69.7656L36.8628 65.4335M31.582 69.7656L25.9402 74.3942M31.582 69.7656H49.9062M36.8628 65.4335H54.6003M1.38785 65.4335L7.4413 61.3701M1.38785 65.4335H0.105768M1.38785 65.4335L0.105768 66.294M54.6003 65.4335L49.9062 69.7656M7.4413 61.3701H0.105768M25.9402 74.3942L19.8986 79.3506M25.9402 74.3942H44.8912M49.9062 69.7656L44.8912 74.3942M44.8912 74.3942L39.5209 79.3506M0.276181 79.3506H19.8986M0.276181 79.3506H0.105768M0.276181 79.3506L0.105768 79.4765M19.8986 79.3506L13.4131 84.6713M19.8986 79.3506H39.5209M39.5209 79.3506L33.7563 84.6713M6.43334 90.3975L13.4131 84.6713M6.43334 90.3975H27.5519M6.43334 90.3975H0.105768M6.43334 90.3975L0.105768 95.5886M13.4131 84.6713H33.7563M13.4131 84.6713H0.105768M33.7563 84.6713L27.5519 90.3975M27.5519 90.3975L20.8558 96.5777M20.8558 96.5777L13.6071 103.268M20.8558 96.5777H0.105768M13.6071 103.268L5.7341 110.534M13.6071 103.268H0.105768M5.7341 110.534H0.105768M5.7341 110.534L0.105768 115.729M58.5795 7.2066L56.0824 8.52363M58.5795 7.2066H68.4311M58.5795 7.2066H48.7281M70.6688 5.93557L72.8297 4.70821M70.6688 5.93557L68.4311 7.2066M70.6688 5.93557H80.3482M72.8297 4.70821H82.3428M72.8297 4.70821L74.9176 3.52243M65.5652 3.52243H74.9176M65.5652 3.52243L67.739 2.37588M65.5652 3.52243H56.2127M68.4311 7.2066L66.1122 8.52363M68.4311 7.2066H78.2825M80.3482 5.93557L82.3428 4.70821M80.3482 5.93557L78.2825 7.2066M82.3428 4.70821L84.2701 3.52243M74.9176 3.52243L75.1736 3.37684L76.9362 2.37588M74.9176 3.52243H84.2701M78.2825 7.2066L76.142 8.52363M93.6226 3.52243L95.3306 2.37588M93.6226 3.52243H84.2701M84.2701 3.52243L84.5064 3.37684L86.1334 2.37588M56.0824 8.52363H66.1122M56.0824 8.52363H46.0526M63.7078 9.88919L66.1122 8.52363M63.7078 9.88919L61.2132 11.306M63.7078 9.88919H73.9228M66.1122 8.52363H76.142M46.0526 8.52363H36.0228M46.0526 8.52363L48.7281 7.2066M76.142 8.52363L73.9228 9.88919M48.7281 7.2066H38.8766M61.2132 11.306L58.6231 12.7771M61.2132 11.306H71.6199M73.9228 9.88919L73.6394 10.0633L71.6199 11.306M71.6199 11.306L69.229 12.7771M48.0172 12.7771L45.1189 14.3057M48.0172 12.7771H58.6231M48.0172 12.7771H37.4113M58.6231 12.7771L55.9319 14.3057M58.6231 12.7771H69.229M69.229 12.7771L66.7448 14.3057M45.1189 14.3057H55.9319M45.1189 14.3057H34.306M53.1334 15.8951L55.9319 14.3057M53.1334 15.8951L50.2213 17.5491M53.1334 15.8951H64.1616M55.9319 14.3057H66.7448M34.306 14.3057H23.493M34.306 14.3057L37.4113 12.7771M66.7448 14.3057L64.1616 15.8951M37.4113 12.7771H26.8054M50.2213 17.5491L47.1884 19.2717M50.2213 17.5491H61.4734M64.1616 15.8951L61.4734 17.5491M61.4734 17.5491L58.6738 19.2717M35.7028 19.2717L32.2983 21.0672M35.7028 19.2717H47.1884M35.7028 19.2717H24.2173M47.1884 19.2717L44.0271 21.0672M47.1884 19.2717H58.6738M58.6738 19.2717L55.7557 21.0672M32.2983 21.0672H44.0271M32.2983 21.0672H20.5696M40.7289 22.9405L44.0271 21.0672M40.7289 22.9405L37.285 24.8964M40.7289 22.9405H52.7114M44.0271 21.0672H55.7557M20.5696 21.0672H8.84101M20.5696 21.0672L24.2173 19.2717M55.7557 21.0672L52.7114 22.9405M24.2173 19.2717H12.7319M37.285 24.8964L33.6853 26.9409M37.285 24.8964H49.5323M52.7114 22.9405L49.5323 24.8964M49.5323 24.8964L46.2095 26.9409M21.1611 26.9409L17.1053 29.08M21.1611 26.9409H33.6853M21.1611 26.9409H8.63705M33.6853 26.9409L29.9192 29.08M33.6853 26.9409H46.2095M46.2095 26.9409L42.7331 29.08M17.1053 29.08H29.9192M25.9746 31.3203L29.9192 29.08M25.9746 31.3203L21.8388 33.6693M25.9746 31.3203H39.0921M29.9192 29.08H42.7331M42.7331 29.08L39.0921 31.3203M8.63705 26.9409H0.105768M21.8388 33.6693L17.4973 36.1352M21.8388 33.6693H35.2742M39.0921 31.3203L35.2742 33.6693M35.2742 33.6693L31.2668 36.1352M3.72781 36.1352H17.4973M3.72781 36.1352H0.105768M3.72781 36.1352L0.105768 38.0454M17.4973 36.1352L12.9344 38.7266M17.4973 36.1352H31.2668M31.2668 36.1352L27.0549 38.7266M8.13297 41.4537L12.9344 38.7266M8.13297 41.4537L3.07357 44.3273M8.13297 41.4537H22.6228M8.13297 41.4537H0.105768M12.9344 38.7266H27.0549M12.9344 38.7266H0.105768M27.0549 38.7266L22.6228 41.4537M0.0658752 38.0664L0.105768 38.0454M3.07357 44.3273H17.9525M3.07357 44.3273H0.105768M3.07357 44.3273L0.105768 46.0129M22.6228 41.4537L17.9525 44.3273M17.9525 44.3273L13.0244 47.3597M13.0244 47.3597L7.8167 50.5638M13.0244 47.3597H0.105768M2.30457 53.9556L7.8167 50.5638M2.30457 53.9556H0.105768M2.30457 53.9556L0.105768 55.3084M7.8167 50.5638H0.105768M19.1738 7.2066L15.9632 8.52363M19.1738 7.2066H29.0252M19.1738 7.2066H9.32218M31.9515 5.93557L34.7773 4.70821M31.9515 5.93557L29.0252 7.2066M31.9515 5.93557H41.6309M34.7773 4.70821H44.2904M34.7773 4.70821L37.5076 3.52243M28.1552 3.52243H37.5076M28.1552 3.52243L30.9501 2.37588M28.1552 3.52243H18.8027M29.0252 7.2066L25.993 8.52363M29.0252 7.2066H38.8766M41.6309 5.93557L44.2904 4.70821M41.6309 5.93557L38.8766 7.2066M44.2904 4.70821L46.8601 3.52243M37.5076 3.52243H46.8601M37.5076 3.52243L40.1475 2.37588M38.8766 7.2066L36.0228 8.52363M56.2127 3.52243L58.5418 2.37588M56.2127 3.52243H46.8601M46.8601 3.52243L49.3447 2.37588M15.9632 8.52363H25.993M15.9632 8.52363H5.93336M22.8488 9.88919L25.993 8.52363M22.8488 9.88919L19.5866 11.306M22.8488 9.88919H33.0636M25.993 8.52363H36.0228M5.93336 8.52363L9.32218 7.2066M5.93336 8.52363H0.105768M36.0228 8.52363L33.0636 9.88919M9.32218 7.2066H0.105768M19.5866 11.306L16.1995 12.7771M19.5866 11.306H29.9933M33.0636 9.88919L29.9933 11.306M29.9933 11.306L26.8054 12.7771M5.59355 12.7771L1.86718 14.3057M5.59355 12.7771H16.1995M5.59355 12.7771H0.105768M16.1995 12.7771L12.6801 14.3057M16.1995 12.7771H26.8054M26.8054 12.7771L23.493 14.3057M9.02063 15.8951L12.6801 14.3057M9.02063 15.8951L5.21243 17.5491M9.02063 15.8951H20.0488M9.02063 15.8951H0.105768M12.6801 14.3057H1.86718M12.6801 14.3057H23.493M1.86718 14.3057L0.105768 15.0282M1.86718 14.3057H0.105768M23.493 14.3057L20.0488 15.8951M5.21243 17.5491L1.24629 19.2717M5.21243 17.5491H16.4646M5.21243 17.5491H0.105768M20.0488 15.8951L16.4646 17.5491M16.4646 17.5491L12.7319 19.2717M1.24629 19.2717H12.7319M1.24629 19.2717L0.105768 19.767M1.24629 19.2717H0.105768M12.7319 19.2717L8.84101 21.0672M4.78179 22.9405L8.84101 21.0672M4.78179 22.9405L0.543154 24.8964M4.78179 22.9405H0.105768M8.84101 21.0672H0.105768M0.0443939 21.0672H0.105768M0.543154 24.8964H0.105768M0.543154 24.8964L0.105768 25.0982M0 25.147L0.105768 25.0982M2.91359 5.93557L6.23797 4.70821M2.91359 5.93557H0.105768M2.91359 5.93557L0.105768 6.97209M6.23797 4.70821L9.45025 3.52243M6.23797 4.70821H0.105768M18.8027 3.52243L21.7529 2.37588M18.8027 3.52243H9.45025M9.45025 3.52243L12.5557 2.37588M9.45025 3.52243H0.105768M325.261 2.37588H334.458M325.261 2.37588H316.064M332.205 1.2669L332.761 1.54077L334.458 2.37588M332.205 1.2669H341.252M334.458 2.37588H343.655M341.252 1.2669L341.845 1.54077L342.144 1.67834L343.655 2.37588M343.655 2.37588H352.853M352.853 2.37588H362.05M316.064 2.37588H306.867M362.05 2.37588H371.247M371.247 2.37588L368.393 1.2669M371.247 2.37588H380.444M368.393 1.2669H377.44M288.472 2.37588H297.669M288.472 2.37588H279.275M296.017 1.2669L296.425 1.54077L296.63 1.67834L297.669 2.37588M296.017 1.2669H305.064M297.669 2.37588H306.867M305.064 1.2669L306.867 2.37588M279.275 2.37588H270.078M251.683 2.37588H260.88M251.683 2.37588H242.486M259.829 1.2669L259.959 1.40341L260.089 1.54077L260.219 1.67834L260.88 2.37588M259.829 1.2669H268.876M260.88 2.37588H270.078M268.876 1.2669L270.078 2.37588M242.486 2.37588H233.289M214.894 2.37588H224.092M214.894 2.37588H205.697M223.641 1.2669L224.092 2.37588M223.641 1.2669H232.688M224.092 2.37588H233.289M232.688 1.2669L232.762 1.40341L232.836 1.54077L232.911 1.67834L233.289 2.37588M205.697 2.37588H196.5M178.106 2.37588H187.303M178.106 2.37588H168.908M187.453 1.2669L187.303 2.37588M187.453 1.2669H196.5M187.303 2.37588H196.5M196.5 1.2669V2.37588M168.908 2.37588H159.711M141.317 2.37588H150.514M141.317 2.37588H132.12M151.265 1.2669L151.08 1.54077L150.704 2.09505L150.514 2.37588M151.265 1.2669H160.312M150.514 2.37588H159.711M160.312 1.2669L160.238 1.40341L160.164 1.54077L160.089 1.67834L159.711 2.37588M132.12 2.37588H122.922M104.528 2.37588H113.725M104.528 2.37588H95.3306M115.077 1.2669L114.743 1.54077L114.575 1.67834L113.725 2.37588M115.077 1.2669H124.124M113.725 2.37588H122.922M124.124 1.2669L123.976 1.40341L122.922 2.37588M95.3306 2.37588H86.1334M67.739 2.37588H76.9362M67.739 2.37588H58.5418M78.8889 1.2669L78.4067 1.54077L78.1641 1.67834L76.9362 2.37588M78.8889 1.2669H87.9359M76.9362 2.37588H86.1334M87.9359 1.2669L87.7138 1.40341L86.1334 2.37588M58.5418 2.37588H49.3447M30.9501 2.37588H40.1475M30.9501 2.37588H21.7529M42.7008 1.2669L40.1475 2.37588M42.7008 1.2669H51.7478M40.1475 2.37588H49.3447M51.7478 1.2669L51.1546 1.54077L50.8559 1.67834L49.3447 2.37588M21.7529 2.37588H12.5557M6.51292 1.2669L3.35855 2.37588M6.51292 1.2669H15.5599M6.51292 1.2669H0.105768M3.35855 2.37588H12.5557M3.35855 2.37588L0.105768 3.51962M3.35855 2.37588H0.105768M15.5599 1.2669L14.8182 1.54077L12.5557 2.37588M377.44 1.2669L378.182 1.54077L380.444 2.37588M380.444 2.37588H389.641M389.641 2.37588L392.894 3.51962M389.641 2.37588H392.894M392.894 55.3084V53.9556M392.894 55.3084V57.5511M392.894 53.9556V50.5638M392.894 57.5511V58.2213V61.3701M392.894 61.3701V65.4335M392.894 29.08V26.9409M392.894 29.08V31.1403M392.894 1.2669V2.37588M392.894 2.37588V3.51962M392.894 3.51962L392.902 3.52243H392.894M392.894 3.51962V3.52243M392.894 3.52243V4.70821M392.894 4.70821V5.93557M392.894 5.93557V6.97209M392.894 6.97209V7.2066M392.894 7.2066V8.52363M392.894 8.52363V9.88919M392.894 9.88919V10.788M392.894 10.788V11.306M392.894 11.306V12.7771M392.894 12.7771V14.3057M392.894 14.3057V15.0282M392.894 15.0282V15.8951M392.894 15.8951V17.5491M392.894 17.5491V19.2717M392.894 19.2717V19.7669M392.894 19.7669V21.0672M392.894 21.0672V22.9405M392.894 22.9405V24.8964M392.894 24.8964V25.0982M392.894 25.0982V26.9409M392.894 31.3203V33.6693M392.894 31.3203V31.1403M392.894 33.6693V36.1352M392.894 36.1352V38.0454M392.894 38.0454V38.7266M392.894 38.7266V41.4537M392.894 41.4537V44.3273M392.894 44.3273V46.0129M392.894 46.0129V47.3597M392.894 47.3597V50.5638M392.894 65.4335V66.294M392.894 66.294V69.7656M392.894 69.7656V74.3942M392.894 74.3942V79.3506M392.894 79.3506V79.4765M392.894 79.4765V84.6713M392.894 84.6713V90.3975M392.894 90.3975V95.5886M392.894 95.5886V96.5777M392.894 96.5777V103.268M392.894 103.268V110.534M392.894 110.534V115.729M392.894 115.729V118.454M392.894 118.454V127.12M392.894 127.12V136.643M392.894 136.643V141.623M392.894 141.623V147.156M392.894 147.156V147.193H0.105768V147.156M0.105768 31.3203V33.6693M0.105768 31.3203V31.1403M0.105768 31.1403V29.08M0.105768 29.08V26.9409M0.105768 26.9409V25.0982M0.105768 25.0982V24.8964M0.105768 24.8964V22.9405M0.105768 22.9405V21.0672M0.105768 21.0672V19.767M0.105768 19.767V19.2717M0.105768 19.2717V17.5491M0.105768 17.5491V15.8951M0.105768 15.8951V15.0282M0.105768 15.0282V14.3057M0.105768 14.3057V12.7771M0.105768 12.7771V11.306M0.105768 11.306V10.788M0.105768 10.788V9.88919M0.105768 9.88919V8.52363M0.105768 8.52363V7.2066M0.105768 7.2066V6.97209M0.105768 6.97209V5.93557M0.105768 5.93557V4.70821M0.105768 4.70821V3.52243M0.105768 3.52243H0.0977889L0.105768 3.51962M0.105768 3.52243V3.51962M0.105768 3.51962V2.37588M0.105768 2.37588V1.2669M0.105768 147.156V141.623M0.105768 141.623V136.643M0.105768 136.643V127.12M0.105768 127.12V118.454M0.105768 118.454V115.729M0.105768 115.729V110.534M0.105768 110.534V103.268M0.105768 103.268V96.5777M0.105768 96.5777V95.5886M0.105768 95.5886V90.3975M0.105768 90.3975V84.6713M0.105768 84.6713V79.4765M0.105768 79.4765V79.3506M0.105768 79.3506V74.3942M0.105768 74.3942V69.7656M0.105768 69.7656V66.294M0.105768 66.294V65.4335M0.105768 65.4335V61.3701M0.105768 61.3701V57.5511M0.105768 57.5511V55.3084M0.105768 55.3084V53.9556M0.105768 53.9556V50.5638M0.105768 50.5638V47.3597M0.105768 47.3597V46.0129M0.105768 46.0129V44.3273M0.105768 44.3273V41.4537M0.105768 41.4537V38.7266M0.105768 38.7266V38.0454M0.105768 38.0454V36.1352M0.105768 36.1352V33.6693" stroke="url(#paint0_radial_25428_1834)" stroke-opacity="0.6" stroke-width="0.38631" stroke-miterlimit="10" stroke-linecap="round" stroke-linejoin="round"/>
<defs>
<radialGradient id="paint0_radial_25428_1834" cx="0" cy="0" r="1" gradientUnits="userSpaceOnUse" gradientTransform="translate(196.5 141.775) rotate(-90) scale(230.109 615.19)">
<stop stop-color="#CED2DF"/>
<stop offset="0.489074" stop-color="#CED2DF" stop-opacity="0"/>
</radialGradient>
</defs>
</svg>
