<svg width="23" height="18" viewBox="0 0 23 18" fill="none" xmlns="http://www.w3.org/2000/svg">
<path d="M19.3327 0.666504H3.33268C1.85992 0.666504 0.666016 1.86041 0.666016 3.33317V13.9998C0.666016 15.4726 1.85992 16.6665 3.33268 16.6665H19.3327C20.8054 16.6665 21.9993 15.4726 21.9993 13.9998V3.33317C21.9993 1.86041 20.8054 0.666504 19.3327 0.666504Z" stroke="#FDFDFD" stroke-width="1.33333"/>
<path d="M10.1407 9.40384L0.666016 4.6665V13.9998C0.666016 14.7071 0.946967 15.3854 1.44706 15.8855C1.94716 16.3856 2.62544 16.6665 3.33268 16.6665H19.3327C20.0399 16.6665 20.7182 16.3856 21.2183 15.8855C21.7184 15.3854 21.9993 14.7071 21.9993 13.9998V4.6665L12.5247 9.40384C12.1545 9.58879 11.7465 9.68508 11.3327 9.68508C10.9189 9.68508 10.5108 9.58879 10.1407 9.40384Z" fill="#FDFDFD"/>
</svg>
