<svg width="362" height="1380" viewBox="0 0 362 1380" fill="none" xmlns="http://www.w3.org/2000/svg">
<mask id="mask0_25420_6776" style="mask-type:luminance" maskUnits="userSpaceOnUse" x="-901" y="0" width="1263" height="1380">
<path d="M-670.375 0L361.226 202.143L130.601 1379.1L-901 1176.96L-670.375 0Z" fill="white"/>
</mask>
<g mask="url(#mask0_25420_6776)">
<mask id="mask1_25420_6776" style="mask-type:luminance" maskUnits="userSpaceOnUse" x="-1017" y="188" width="1481" height="1003">
<path d="M-1016.21 500.163L292.16 188.043L463.078 878.226L-845.29 1190.35L-1016.21 500.163Z" fill="white"/>
</mask>
<g mask="url(#mask1_25420_6776)">
<mask id="mask2_25420_6776" style="mask-type:luminance" maskUnits="userSpaceOnUse" x="-1017" y="188" width="1481" height="1003">
<path d="M-1016.21 500.163L292.16 188.043L463.078 878.226L-845.29 1190.35L-1016.21 500.163Z" fill="white"/>
</mask>
<g mask="url(#mask2_25420_6776)">
<path fill-rule="evenodd" clip-rule="evenodd" d="M-840.115 1187.38L-872.932 1062.47C-874.121 1062.79 -876.481 1063.79 -876.481 1063.79C-876.481 1063.79 -861.611 1047.77 -853.568 1035.37C-835.535 1007.59 -817.487 972.161 -796.85 936.563C-744.769 846.726 -675.163 761.172 -573.294 743.949C-447.495 722.698 -341.665 764.477 -233.14 803.724C-147.776 834.597 -60.0567 863.579 49.0949 829.27C99.3683 813.448 115.589 768.816 124.27 717.578C136.776 643.715 131.143 555.654 133.136 476.124C134.72 413.011 141.166 354.564 158.991 308.495C182.276 248.255 222.957 205.551 290.261 188.504L323.062 313.415C292.128 321.251 280.859 347.457 273.559 378.596C261.318 430.94 262.845 496.607 262.825 562.874C262.832 640.409 261.061 718.62 243.181 782.855C220.634 863.785 174.656 925.219 89.0173 952.147C-52.5123 996.643 -166.696 964.827 -277.39 924.783C-364.957 893.107 -449.33 853.889 -550.828 871.043C-585.115 876.826 -610.724 899.285 -632.995 925.792C-662.709 961.168 -686.017 1004.55 -707.591 1043.38C-728.739 1081.49 -748.73 1115.89 -769.062 1139.62C-791.227 1165.49 -815.56 1181.16 -840.115 1187.38Z" fill="#C2DBFF"/>
</g>
</g>
</g>
<mask id="mask3_25420_6776" style="mask-type:luminance" maskUnits="userSpaceOnUse" x="-855" y="56" width="1172" height="1262">
<path d="M-644.762 56.3564L316.303 244.678L106.177 1317.01L-854.887 1128.69L-644.762 56.3564Z" fill="white"/>
</mask>
<g mask="url(#mask3_25420_6776)">
<mask id="mask4_25420_6776" style="mask-type:luminance" maskUnits="userSpaceOnUse" x="-1012" y="186" width="1481" height="1003">
<path d="M-1011.21 498.164L297.158 186.044L468.076 876.227L-840.292 1188.35L-1011.21 498.164Z" fill="white"/>
</mask>
<g mask="url(#mask4_25420_6776)">
<mask id="mask5_25420_6776" style="mask-type:luminance" maskUnits="userSpaceOnUse" x="-1012" y="186" width="1481" height="1003">
<path d="M-1011.21 498.164L297.158 186.044L468.076 876.227L-840.292 1188.35L-1011.21 498.164Z" fill="white"/>
</mask>
<g mask="url(#mask5_25420_6776)">
<mask id="mask6_25420_6776" style="mask-type:luminance" maskUnits="userSpaceOnUse" x="-1012" y="185" width="1480" height="1002">
<path d="M-1011.3 497.97L297.154 185.85L467.723 874.709L-840.733 1186.83L-1011.3 497.97Z" fill="white"/>
</mask>
<g mask="url(#mask6_25420_6776)">
<mask id="mask7_25420_6776" style="mask-type:luminance" maskUnits="userSpaceOnUse" x="-872" y="186" width="1201" height="1000">
<path d="M-835.121 1185.38L-867.938 1060.47C-869.127 1060.79 -871.487 1061.79 -871.487 1061.79C-871.487 1061.79 -856.617 1045.77 -848.574 1033.37C-830.541 1005.59 -812.493 970.161 -791.856 934.563C-739.775 844.726 -670.169 759.172 -568.3 741.949C-442.501 720.698 -336.671 762.477 -228.146 801.724C-142.782 832.597 -55.0626 861.579 54.089 827.27C104.362 811.448 120.583 766.816 129.264 715.578C141.77 641.715 136.137 553.654 138.13 474.124C139.715 411.011 146.16 352.564 163.986 306.495C187.27 246.255 227.951 203.551 295.256 186.504L328.056 311.415C297.122 319.251 285.853 345.457 278.553 376.596C266.312 428.94 267.839 494.607 267.819 560.874C267.826 638.409 266.055 716.62 248.175 780.855C225.628 861.785 179.65 923.219 94.0114 950.147C-47.5182 994.643 -161.702 962.827 -272.396 922.783C-359.963 891.107 -444.335 851.889 -545.834 869.043C-580.12 874.826 -605.73 897.285 -628.001 923.792C-657.715 959.168 -681.023 1002.55 -702.597 1041.38C-723.745 1079.49 -743.736 1113.89 -764.067 1137.62C-786.233 1163.49 -810.566 1179.16 -835.121 1185.38Z" fill="white"/>
</mask>
<g mask="url(#mask7_25420_6776)">
<path fill-rule="evenodd" clip-rule="evenodd" d="M-850.723 1126.01L-852.339 1119.84C-846.713 1118.42 -841.28 1115.79 -835.967 1112.12L-832.292 1117.37C-838.263 1121.47 -844.382 1124.41 -850.723 1126.01ZM-805.061 1090.1L-810.186 1086.23C-803.063 1076.98 -796.02 1066.32 -788.905 1054.65L-783.384 1057.96C-790.629 1069.84 -797.801 1080.7 -805.061 1090.1ZM-764.49 1025.33L-770.123 1022.23C-764.045 1011.38 -757.832 1000.11 -751.438 988.65L-745.787 991.755C-752.199 1003.21 -758.412 1014.48 -764.49 1025.33ZM-727.144 959.214L-732.695 955.969C-726.171 944.942 -719.388 933.964 -712.278 923.228L-706.886 926.742C-713.943 937.383 -720.657 948.285 -727.144 959.214ZM-685.186 896.303L-690.304 892.401C-682.29 882.071 -673.863 872.194 -664.964 863.011L-660.304 867.425C-669.045 876.445 -677.311 886.141 -685.186 896.303ZM-632.576 842.641L-636.521 837.589C-626.036 829.618 -614.964 822.664 -603.192 816.978L-600.343 822.7C-611.724 828.214 -622.447 834.936 -632.576 842.641ZM-565.387 810.4L-566.853 804.19C-563.82 803.493 -560.731 802.878 -557.624 802.356C-547.62 800.673 -537.775 799.438 -528.065 798.617L-527.487 804.972C-537.032 805.772 -546.694 806.99 -556.512 808.638C-559.509 809.147 -562.467 809.735 -565.387 810.4ZM-489.907 803.831L-489.802 797.451C-476.593 797.758 -463.591 798.75 -450.794 800.338L-451.55 806.662C-464.154 805.094 -476.926 804.112 -489.907 803.831ZM-414.377 812.885L-413.07 806.67C-400.325 809.344 -387.708 812.488 -375.186 816.02L-376.92 822.134C-389.295 818.666 -401.77 815.532 -414.377 812.885ZM-340.763 833.268L-338.756 827.225C-326.461 831.279 -314.232 835.585 -302.021 839.976L-304.197 845.968C-316.356 841.587 -328.536 837.309 -340.763 833.268ZM-268.551 858.982L-266.327 853.017C-254.215 857.459 -242.079 861.871 -229.865 866.156L-231.988 872.158C-244.237 867.866 -256.404 863.431 -268.551 858.982ZM-195.884 884.201L-193.96 878.125C-181.697 881.977 -169.325 885.551 -156.811 888.763L-158.394 894.925C-171.028 891.689 -183.5 888.078 -195.884 884.201ZM-121.098 903.17L-119.96 896.904C-107.427 899.201 -94.7293 901.017 -81.8078 902.24L-82.3918 908.597C-95.5027 907.337 -108.394 905.5 -121.098 903.17ZM-44.1786 910.427L-44.2001 904.058C-31.6473 904.06 -18.8471 903.438 -5.82063 902.118L-5.12855 908.443C-18.3955 909.804 -31.3952 910.439 -44.1786 910.427ZM32.6739 902.695L31.3563 896.46C43.5364 893.985 55.9465 890.882 68.5896 887.047L70.5083 893.134C57.6558 897.034 45.0362 900.202 32.6739 902.695ZM106.094 878.624L102.967 873.043C114.388 866.776 124.467 859.327 133.353 850.848L137.835 855.44C128.556 864.284 118.036 872.071 106.094 878.624ZM162.069 825.763L156.624 822.344C163.258 811.939 168.869 800.643 173.602 788.628L179.598 790.97C174.717 803.381 168.932 815.013 162.069 825.763ZM190.968 754.758L184.722 753.234C187.666 741.221 190.025 728.723 191.922 715.851L198.281 716.797C196.365 729.859 193.966 742.562 190.968 754.758ZM202.505 679.273L196.082 678.74C197.107 666.21 197.834 653.463 198.324 640.562L204.762 640.834C204.256 653.819 203.543 666.675 202.505 679.273ZM205.682 603.193L199.248 603.082C199.422 590.332 199.464 577.522 199.466 564.738L205.899 564.761C205.908 577.582 205.859 590.427 205.682 603.193ZM205.911 527.19L199.461 527.164C199.493 514.227 199.559 501.386 199.771 488.714L206.198 488.86C205.996 501.48 205.933 514.305 205.911 527.19ZM207.35 451.406L200.922 451.084C201.55 437.928 202.439 425.089 203.702 412.623L210.114 413.296C208.858 425.639 207.972 438.373 207.35 451.406ZM215.326 376.39L208.995 375.203C211.485 361.952 214.628 349.378 218.561 337.612L224.672 339.641C220.828 351.141 217.758 363.429 215.326 376.39ZM239.784 306.054L234.236 302.792C241.111 291.25 249.333 281.049 259.163 272.402L263.451 277.168C254.117 285.382 246.315 295.081 239.784 306.054ZM294.543 257.94L292.03 252.055C297.925 249.621 304.177 247.557 310.837 245.874L312.454 252.043C306.113 253.648 300.146 255.626 294.543 257.94Z" fill="#C2DBFF"/>
</g>
</g>
</g>
</g>
</g>
</svg>
