<svg width="1178" height="1380" viewBox="0 0 1178 1380" fill="none" xmlns="http://www.w3.org/2000/svg">
<mask id="mask0_25420_6741" style="mask-type:luminance" maskUnits="userSpaceOnUse" x="0" y="0" width="1263" height="1380">
<path d="M230.625 0L1262.23 202.143L1031.6 1379.1L0 1176.96L230.625 0Z" fill="white"/>
</mask>
<g mask="url(#mask0_25420_6741)">
<mask id="mask1_25420_6741" style="mask-type:luminance" maskUnits="userSpaceOnUse" x="-116" y="188" width="1481" height="1003">
<path d="M-115.208 500.163L1193.16 188.043L1364.08 878.226L55.7105 1190.35L-115.208 500.163Z" fill="white"/>
</mask>
<g mask="url(#mask1_25420_6741)">
<mask id="mask2_25420_6741" style="mask-type:luminance" maskUnits="userSpaceOnUse" x="-116" y="188" width="1481" height="1003">
<path d="M-115.208 500.163L1193.16 188.043L1364.08 878.226L55.7105 1190.35L-115.208 500.163Z" fill="white"/>
</mask>
<g mask="url(#mask2_25420_6741)">
<path fill-rule="evenodd" clip-rule="evenodd" d="M60.8851 1187.38L28.0678 1062.47C26.8795 1062.79 24.5188 1063.79 24.5188 1063.79C24.5188 1063.79 39.3892 1047.77 47.4325 1035.37C65.4651 1007.59 83.5131 972.161 104.151 936.563C156.231 846.726 225.837 761.172 327.707 743.949C453.505 722.698 559.335 764.477 667.86 803.724C753.224 834.597 840.943 863.579 950.095 829.27C1000.37 813.448 1016.59 768.816 1025.27 717.578C1037.78 643.715 1032.14 555.654 1034.14 476.124C1035.72 413.011 1042.17 354.564 1059.99 308.495C1083.28 248.255 1123.96 205.551 1191.26 188.504L1224.06 313.415C1193.13 321.251 1181.86 347.457 1174.56 378.596C1162.32 430.94 1163.85 496.607 1163.82 562.874C1163.83 640.409 1162.06 718.62 1144.18 782.855C1121.63 863.785 1075.66 925.219 990.017 952.147C848.488 996.643 734.304 964.827 623.61 924.783C536.043 893.107 451.671 853.889 350.172 871.043C315.886 876.826 290.277 899.285 268.005 925.792C238.291 961.168 214.983 1004.55 193.409 1043.38C172.261 1081.49 152.27 1115.89 131.939 1139.62C109.773 1165.49 85.4404 1181.16 60.8851 1187.38Z" fill="#C2DBFF"/>
</g>
</g>
</g>
<mask id="mask3_25420_6741" style="mask-type:luminance" maskUnits="userSpaceOnUse" x="41" y="58" width="1172" height="1262">
<path d="M251.238 58.3564L1212.3 246.678L1002.18 1319.01L41.1133 1130.69L251.238 58.3564Z" fill="white"/>
</mask>
<g mask="url(#mask3_25420_6741)">
<mask id="mask4_25420_6741" style="mask-type:luminance" maskUnits="userSpaceOnUse" x="-116" y="188" width="1481" height="1003">
<path d="M-115.21 500.164L1193.16 188.044L1364.08 878.227L55.7086 1190.35L-115.21 500.164Z" fill="white"/>
</mask>
<g mask="url(#mask4_25420_6741)">
<mask id="mask5_25420_6741" style="mask-type:luminance" maskUnits="userSpaceOnUse" x="-116" y="188" width="1481" height="1003">
<path d="M-115.21 500.164L1193.16 188.044L1364.08 878.227L55.7086 1190.35L-115.21 500.164Z" fill="white"/>
</mask>
<g mask="url(#mask5_25420_6741)">
<mask id="mask6_25420_6741" style="mask-type:luminance" maskUnits="userSpaceOnUse" x="-116" y="187" width="1480" height="1002">
<path d="M-115.303 499.97L1193.15 187.85L1363.72 876.709L55.2667 1188.83L-115.303 499.97Z" fill="white"/>
</mask>
<g mask="url(#mask6_25420_6741)">
<mask id="mask7_25420_6741" style="mask-type:luminance" maskUnits="userSpaceOnUse" x="24" y="188" width="1201" height="1000">
<path d="M60.8792 1187.38L28.062 1062.47C26.8736 1062.79 24.513 1063.79 24.513 1063.79C24.513 1063.79 39.3834 1047.77 47.4266 1035.37C65.4592 1007.59 83.5073 972.161 104.145 936.563C156.225 846.726 225.831 761.172 327.701 743.949C453.499 722.698 559.329 764.477 667.854 803.724C753.218 834.597 840.938 863.579 950.089 829.27C1000.36 813.448 1016.58 768.816 1025.26 717.578C1037.77 643.715 1032.14 555.654 1034.13 476.124C1035.71 413.011 1042.16 354.564 1059.99 308.495C1083.27 248.255 1123.95 205.551 1191.26 188.504L1224.06 313.415C1193.12 321.251 1181.85 347.457 1174.55 378.596C1162.31 430.94 1163.84 496.607 1163.82 562.874C1163.83 640.409 1162.05 718.62 1144.18 782.855C1121.63 863.785 1075.65 925.219 990.012 952.147C848.482 996.643 734.298 964.827 623.604 924.783C536.037 893.107 451.665 853.889 350.166 871.043C315.88 876.826 290.271 899.285 267.999 925.792C238.285 961.168 214.978 1004.55 193.403 1043.38C172.255 1081.49 152.264 1115.89 131.933 1139.62C109.767 1165.49 85.4346 1181.16 60.8792 1187.38Z" fill="white"/>
</mask>
<g mask="url(#mask7_25420_6741)">
<path fill-rule="evenodd" clip-rule="evenodd" d="M45.2774 1128.01L43.6609 1121.84C49.2871 1120.42 54.7202 1117.79 60.0335 1114.12L63.7084 1119.37C57.7373 1123.47 51.618 1126.41 45.2774 1128.01ZM90.9395 1092.1L85.8143 1088.23C92.9376 1078.98 99.98 1068.32 107.095 1056.65L112.616 1059.96C105.371 1071.84 98.1994 1082.7 90.9395 1092.1ZM131.51 1027.33L125.877 1024.23C131.955 1013.38 138.168 1002.11 144.563 990.65L150.213 993.755C143.801 1005.21 137.588 1016.48 131.51 1027.33ZM168.856 961.214L163.305 957.969C169.829 946.942 176.612 935.964 183.722 925.228L189.114 928.742C182.058 939.383 175.343 950.285 168.856 961.214ZM210.815 898.303L205.696 894.401C213.711 884.071 222.137 874.194 231.036 865.011L235.697 869.425C226.955 878.445 218.689 888.141 210.815 898.303ZM263.424 844.641L259.479 839.589C269.964 831.618 281.037 824.664 292.808 818.978L295.657 824.7C284.276 830.214 273.553 836.936 263.424 844.641ZM330.613 812.4L329.147 806.19C332.181 805.493 335.27 804.878 338.376 804.356C348.38 802.673 358.225 801.438 367.935 800.617L368.513 806.972C358.969 807.772 349.306 808.99 339.488 810.638C336.491 811.147 333.533 811.735 330.613 812.4ZM406.093 805.831L406.199 799.451C419.407 799.758 432.41 800.75 445.206 802.338L444.45 808.662C431.846 807.094 419.074 806.112 406.093 805.831ZM481.623 814.885L482.931 808.67C495.675 811.344 508.292 814.488 520.814 818.02L519.08 824.134C506.706 820.666 494.23 817.532 481.623 814.885ZM555.238 835.268L557.244 829.225C569.54 833.279 581.768 837.585 593.979 841.976L591.804 847.968C579.644 843.587 567.464 839.309 555.238 835.268ZM627.45 860.982L629.674 855.017C641.786 859.459 653.921 863.871 666.136 868.156L664.012 874.158C651.763 869.866 639.596 865.431 627.45 860.982ZM700.116 886.201L702.04 880.125C714.304 883.977 726.675 887.551 739.189 890.763L737.606 896.925C724.972 893.689 712.5 890.078 700.116 886.201ZM774.902 905.17L776.04 898.904C788.573 901.201 801.271 903.017 814.192 904.24L813.608 910.597C800.497 909.337 787.607 907.5 774.902 905.17ZM851.822 912.427L851.8 906.058C864.353 906.06 877.153 905.438 890.18 904.118L890.872 910.443C877.605 911.804 864.605 912.439 851.822 912.427ZM928.674 904.695L927.357 898.46C939.537 895.985 951.947 892.882 964.59 889.047L966.509 895.134C953.656 899.034 941.036 902.202 928.674 904.695ZM1002.09 880.624L998.967 875.043C1010.39 868.776 1020.47 861.327 1029.35 852.848L1033.84 857.44C1024.56 866.284 1014.04 874.071 1002.09 880.624ZM1058.07 827.763L1052.62 824.344C1059.26 813.939 1064.87 802.643 1069.6 790.628L1075.6 792.97C1070.72 805.381 1064.93 817.013 1058.07 827.763ZM1086.97 756.758L1080.72 755.234C1083.67 743.221 1086.03 730.723 1087.92 717.851L1094.28 718.797C1092.37 731.859 1089.97 744.562 1086.97 756.758ZM1098.5 681.273L1092.08 680.74C1093.11 668.21 1093.83 655.463 1094.32 642.562L1100.76 642.834C1100.26 655.819 1099.54 668.675 1098.5 681.273ZM1101.68 605.193L1095.25 605.082C1095.42 592.332 1095.46 579.522 1095.47 566.738L1101.9 566.761C1101.91 579.582 1101.86 592.427 1101.68 605.193ZM1101.91 529.19L1095.46 529.164C1095.49 516.227 1095.56 503.386 1095.77 490.714L1102.2 490.86C1102 503.48 1101.93 516.305 1101.91 529.19ZM1103.35 453.406L1096.92 453.084C1097.55 439.928 1098.44 427.089 1099.7 414.623L1106.11 415.296C1104.86 427.639 1103.97 440.373 1103.35 453.406ZM1111.33 378.39L1105 377.203C1107.48 363.952 1110.63 351.378 1114.56 339.612L1120.67 341.641C1116.83 353.141 1113.76 365.429 1111.33 378.39ZM1135.78 308.054L1130.24 304.792C1137.11 293.25 1145.33 283.049 1155.16 274.402L1159.45 279.168C1150.12 287.382 1142.32 297.081 1135.78 308.054ZM1190.54 259.94L1188.03 254.055C1193.93 251.621 1200.18 249.557 1206.84 247.874L1208.45 254.043C1202.11 255.648 1196.15 257.626 1190.54 259.94Z" fill="#C2DBFF"/>
</g>
</g>
</g>
</g>
</g>
</svg>
