<svg width="393" height="1042" viewBox="0 0 393 1042" fill="none" xmlns="http://www.w3.org/2000/svg">
<mask id="mask0_25425_2585" style="mask-type:luminance" maskUnits="userSpaceOnUse" x="-301" y="0" width="963" height="1042">
<path d="M-301 189.562L445.603 0L661.875 851.801L-84.7284 1041.36L-301 189.562Z" fill="white"/>
</mask>
<g mask="url(#mask0_25425_2585)">
<mask id="mask1_25425_2585" style="mask-type:luminance" maskUnits="userSpaceOnUse" x="-374" y="12" width="1100" height="1021">
<path d="M-373.227 629.25L395.439 12.3186L725.032 415.835L-43.6337 1032.77L-373.227 629.25Z" fill="white"/>
</mask>
<g mask="url(#mask1_25425_2585)">
<mask id="mask2_25425_2585" style="mask-type:luminance" maskUnits="userSpaceOnUse" x="-374" y="12" width="1100" height="1021">
<path d="M-373.227 629.25L395.439 12.3186L725.032 415.835L-43.6337 1032.77L-373.227 629.25Z" fill="white"/>
</mask>
<g mask="url(#mask2_25425_2585)">
<path fill-rule="evenodd" clip-rule="evenodd" d="M-41.1417 1029.18L-102.041 956.741C-102.729 957.322 -103.978 958.728 -103.978 958.728C-103.978 958.728 -99.1529 943.453 -97.7113 932.724C-94.4784 908.672 -93.6348 879.545 -91.1279 849.499C-84.8021 773.671 -65.5262 695.185 -3.45838 651.839C73.1945 598.323 156.384 592.812 240.565 584.779C306.781 578.461 373.964 570.153 435.498 513.208C463.833 486.967 460.582 452.321 450.267 415.665C435.391 362.825 404.05 306.269 380.435 252.971C361.696 210.675 347.64 169.945 345.002 133.845C341.536 86.6477 355.09 45.6105 394.32 13.2181L455.207 85.6622C437.177 100.551 437.93 121.44 442.859 144.352C451.162 182.857 472.763 225.869 493.526 269.764C517.84 321.113 541.189 373.467 549.487 421.615C559.929 482.284 548.74 537.387 500.464 582.072C420.681 655.916 335.082 670.644 249.214 678.829C181.288 685.306 113.112 685.785 51.2686 728.97C30.3738 743.549 20.4546 766.453 14.0152 790.992C5.42737 823.737 3.59337 859.778 1.47847 892.258C-0.577832 924.132 -3.03279 953.181 -9.0601 975.268C-15.6277 999.354 -26.8295 1017.36 -41.1417 1029.18Z" fill="#C2DBFF"/>
</g>
</g>
</g>
<mask id="mask3_25425_2585" style="mask-type:luminance" maskUnits="userSpaceOnUse" x="-270" y="45" width="894" height="953">
<path d="M-269.051 221.75L426.503 45.15L623.55 821.235L-72.0033 997.836L-269.051 221.75Z" fill="white"/>
</mask>
<g mask="url(#mask3_25425_2585)">
<mask id="mask4_25425_2585" style="mask-type:luminance" maskUnits="userSpaceOnUse" x="-374" y="12" width="1100" height="1021">
<path d="M-373.229 629.252L395.437 12.3205L725.03 415.837L-43.6357 1032.77L-373.229 629.252Z" fill="white"/>
</mask>
<g mask="url(#mask4_25425_2585)">
<mask id="mask5_25425_2585" style="mask-type:luminance" maskUnits="userSpaceOnUse" x="-374" y="12" width="1100" height="1021">
<path d="M-373.229 629.252L395.437 12.3205L725.03 415.837L-43.6357 1032.77L-373.229 629.252Z" fill="white"/>
</mask>
<g mask="url(#mask5_25425_2585)">
<mask id="mask6_25425_2585" style="mask-type:luminance" maskUnits="userSpaceOnUse" x="-374" y="12" width="1099" height="1020">
<path d="M-373.349 629.151L395.376 12.1914L724.323 414.941L-44.4015 1031.9L-373.349 629.151Z" fill="white"/>
</mask>
<g mask="url(#mask6_25425_2585)">
<mask id="mask7_25425_2585" style="mask-type:luminance" maskUnits="userSpaceOnUse" x="-104" y="13" width="658" height="1017">
<path d="M-41.1437 1029.18L-102.043 956.741C-102.731 957.322 -103.98 958.728 -103.98 958.728C-103.98 958.728 -99.1548 943.453 -97.7132 932.724C-94.4804 908.672 -93.6368 879.545 -91.1299 849.499C-84.8041 773.671 -65.5282 695.185 -3.46033 651.839C73.1925 598.323 156.382 592.812 240.563 584.779C306.779 578.461 373.962 570.153 435.496 513.208C463.831 486.967 460.58 452.321 450.265 415.665C435.389 362.825 404.048 306.269 380.433 252.971C361.694 210.675 347.638 169.945 345 133.845C341.534 86.6477 355.088 45.6105 394.318 13.2181L455.205 85.6622C437.175 100.551 437.928 121.44 442.857 144.352C451.16 182.857 472.761 225.869 493.524 269.764C517.838 321.113 541.188 373.467 549.485 421.615C559.927 482.284 548.738 537.387 500.462 582.072C420.679 655.916 335.08 670.644 249.212 678.829C181.286 685.306 113.11 685.785 51.2667 728.97C30.3718 743.549 20.4527 766.453 14.0133 790.992C5.42541 823.737 3.59142 859.778 1.47652 892.258C-0.579785 924.132 -3.03474 953.181 -9.06205 975.268C-15.6296 999.354 -26.8315 1017.36 -41.1437 1029.18Z" fill="white"/>
</mask>
<g mask="url(#mask7_25425_2585)">
<path fill-rule="evenodd" clip-rule="evenodd" d="M-70.0971 994.75L-73.102 991.171C-69.8229 988.462 -67.0495 985.016 -64.6787 980.925L-60.5998 983.248C-63.2693 987.834 -66.4008 991.699 -70.0971 994.75ZM-51.1144 956.65L-55.7218 955.694C-53.9038 947.336 -52.5822 938.067 -51.5294 928.106L-46.8353 928.567C-47.9098 938.704 -49.253 948.149 -51.1144 956.65ZM-44.5534 901.03L-49.2567 900.742C-48.6331 891.65 -48.0503 882.241 -47.4085 872.646L-42.6928 872.931C-43.3471 882.529 -43.9298 891.938 -44.5534 901.03ZM-40.5479 845.534L-45.2419 845.125C-44.3786 835.776 -43.3283 826.379 -41.985 817.039L-37.3126 817.677C-38.6497 826.936 -39.6782 836.262 -40.5479 845.534ZM-32.4838 790.713L-37.0974 789.733C-35.0279 780.379 -32.5438 771.196 -29.5296 762.324L-25.0589 763.786C-28.0203 772.5 -30.4547 781.514 -32.4838 790.713ZM-14.4656 738.678L-18.6627 736.569C-14.2176 728.002 -9.06453 719.925 -3.05066 712.469L0.629848 715.365C-5.17856 722.585 -10.1729 730.399 -14.4656 738.678ZM19.9245 696.259L17.0068 692.605C18.7974 691.193 20.6504 689.818 22.544 688.497C28.6421 684.247 34.7749 680.341 40.9484 676.754L43.3242 680.781C37.2534 684.303 31.2359 688.14 25.25 692.31C23.4249 693.586 21.6497 694.903 19.9245 696.259ZM67.8551 668.243L65.9247 663.985C74.7689 660.047 83.6915 656.627 92.6644 653.667L94.1461 658.092C85.3072 661.005 76.5403 664.359 67.8551 668.243ZM120.717 650.558L119.634 646.032C128.913 643.807 138.255 641.934 147.656 640.347L148.425 644.94C139.142 646.523 129.897 648.359 120.717 650.558ZM175.862 640.978L175.297 636.346C184.711 635.176 194.16 634.194 203.624 633.273L204.062 637.924C194.635 638.835 185.227 639.82 175.862 640.978ZM231.75 635.367L231.353 630.719C240.767 629.863 250.188 628.98 259.621 627.989L260.096 632.63C250.638 633.628 241.19 634.505 231.75 635.367ZM287.784 629.286L287.153 624.658C296.483 623.365 305.797 621.853 315.092 620.057L315.976 624.634C306.593 626.452 297.201 627.971 287.784 629.286ZM343.262 618.401L342.051 613.894C351.071 611.486 360.051 608.708 368.992 605.467L370.598 609.86C361.52 613.136 352.407 615.961 343.262 618.401ZM396.481 599.091L394.469 594.879C402.784 590.945 411.066 586.52 419.28 581.562L421.721 585.533C413.361 590.594 404.951 595.091 396.481 599.091ZM444.955 569.874L442.128 566.158C449.419 560.7 456.665 554.754 463.836 548.25L467.015 551.68C459.726 558.292 452.361 564.347 444.955 569.874ZM486.034 530.913L482.213 528.197C487.813 520.465 492.152 512.372 495.379 503.97L499.787 505.606C496.415 514.372 491.888 522.828 486.034 530.913ZM506.533 478.352L501.854 477.796C502.986 468.824 503.16 459.584 502.528 450.142L507.233 449.813C507.891 459.564 507.708 469.081 506.533 478.352ZM503.41 422.266L498.795 423.215C496.979 414.336 494.623 405.318 491.843 396.199L496.351 394.831C499.178 404.083 501.571 413.248 503.41 422.266ZM487.384 368.655L482.963 370.316C479.713 361.696 476.198 353.025 472.477 344.328L476.826 342.489C480.563 351.248 484.121 359.986 487.384 368.655ZM465.634 317.272L461.338 319.215C457.456 310.717 453.468 302.219 449.461 293.752L453.728 291.75C457.754 300.239 461.749 308.761 465.634 317.272ZM441.957 266.863L437.677 268.868C433.641 260.291 429.659 251.765 425.827 243.306L430.129 241.387C433.952 249.809 437.931 258.322 441.957 266.863ZM419.149 216.221L414.79 218.023C411.082 209.113 407.645 200.331 404.573 191.679L409.031 190.114C412.069 198.683 415.475 207.394 419.149 216.221ZM400.911 164.038L396.346 165.236C393.841 155.68 391.98 146.366 390.896 137.341L395.579 136.768C396.639 145.59 398.458 154.691 400.911 164.038ZM395.057 109.786L390.36 109.365C391.294 99.5647 393.541 90.2314 397.341 81.4222L401.675 83.234C398.068 91.6007 395.942 100.47 395.057 109.786ZM416.238 60.7515L412.729 57.6415C415.87 54.181 419.364 50.8541 423.247 47.6512L426.252 51.2303C422.556 54.2808 419.224 57.4617 416.238 60.7515Z" fill="#C2DBFF"/>
</g>
</g>
</g>
</g>
</g>
</svg>
